if (_typeface_js && _typeface_js.loadFace) _typeface_js.loadFace({"glyphs":{"S":{"x_min":41.671875,"x_max":904.171875,"ha":833,"o":"m 790 926 l 819 811 l 876 811 l 904 926 l 873 1041 l 498 1041 b 198 798 365 1041 230 933 l 190 758 l 631 219 b 470 102 604 168 526 100 l 155 116 l 125 230 l 68 230 l 41 115 l 72 0 l 447 0 b 745 243 580 0 715 109 l 755 283 l 312 822 b 475 940 340 875 418 943 l 790 926 "},"/":{"x_min":77.78125,"x_max":755.5625,"ha":833,"o":"m 77 29 l 654 1072 l 755 1015 l 179 -26 l 77 29 "},"y":{"x_min":45.0625,"x_max":850,"ha":833,"o":"m 741 694 l 669 636 l 570 208 l 420 115 l 390 115 b 248 298 288 115 225 197 l 326 636 l 283 694 l 175 694 l 161 636 l 205 609 l 133 298 b 172 87 115 218 127 143 b 351 0 212 33 276 2 l 440 0 l 548 113 l 490 -138 l 340 -231 l 309 -231 b 168 -48 208 -231 145 -150 l 52 -48 b 91 -259 34 -129 48 -204 b 270 -347 131 -313 195 -344 l 359 -347 l 376 -330 l 605 -138 l 779 609 l 836 636 l 850 694 l 741 694 "},"≈":{"x_min":84.71875,"x_max":838.890625,"ha":833,"o":"m 384 622 l 526 500 l 618 500 l 838 647 l 816 694 l 594 602 l 400 694 l 156 594 l 136 500 l 201 500 l 384 622 m 544 383 l 350 475 l 106 375 l 84 280 l 150 280 l 334 402 l 475 280 l 566 280 l 788 427 l 766 475 l 544 383 "},"Á":{"x_min":15.28125,"x_max":808.21875,"ha":833,"o":"m 763 1236 l 795 1316 l 773 1363 l 720 1330 l 484 1129 l 506 1081 l 763 1236 m 86 86 l 27 58 l 15 0 l 123 0 l 195 58 l 288 463 l 627 463 l 534 58 l 581 0 l 690 0 l 702 58 l 658 86 l 798 695 b 752 943 820 788 804 876 b 593 1041 726 977 686 1025 b 386 943 491 1025 429 977 b 226 695 304 876 248 788 l 86 86 m 655 579 l 316 579 l 343 695 b 565 922 368 802 461 895 b 681 695 656 895 706 802 l 655 579 "},"g":{"x_min":5.671875,"x_max":848.609375,"ha":833,"o":"m 740 694 l 668 636 l 655 577 l 598 694 l 523 694 b 254 593 430 694 334 658 b 95 347 173 526 118 440 b 140 101 75 254 90 166 b 363 0 191 36 270 0 l 438 0 l 547 113 l 504 -75 l 338 -231 l 309 -231 b 130 1 181 -231 101 -126 l 15 1 b 61 -244 -6 -91 9 -179 b 283 -347 111 -311 190 -347 l 359 -347 l 619 -75 l 777 609 l 834 636 l 848 694 l 740 694 m 569 208 l 419 115 l 390 115 b 211 347 262 115 181 219 b 497 579 241 475 369 579 l 526 579 l 634 487 l 569 208 "},"–":{"x_min":252.78125,"x_max":580.5625,"ha":833,"o":"m 252 359 l 252 301 l 523 301 l 580 359 l 580 416 l 523 416 l 252 359 "},"ë":{"x_min":85.390625,"x_max":819.453125,"ha":833,"o":"m 112 1026 l 112 868 l 279 868 l 279 968 l 219 1026 l 112 1026 m 429 1026 l 429 868 l 595 868 l 595 968 l 536 1026 l 429 1026 m 819 569 l 758 694 l 522 694 b 252 593 430 694 334 658 b 94 347 172 527 116 440 b 138 101 73 254 88 166 b 362 0 191 36 270 0 l 598 0 l 718 126 l 737 212 l 579 115 l 388 115 b 205 288 281 115 206 188 l 755 288 l 819 569 m 231 405 b 495 579 280 505 388 579 l 686 579 l 716 552 l 681 405 l 231 405 "},"Î":{"x_min":15.28125,"x_max":930.5625,"ha":833,"o":"m 655 1250 l 823 1109 l 868 1156 l 725 1358 l 633 1358 l 398 1156 l 420 1109 l 655 1250 m 255 1041 l 241 984 l 337 926 l 518 926 l 330 115 l 150 115 l 27 58 l 15 0 l 690 0 l 702 56 l 659 115 l 445 115 l 633 926 l 847 926 l 916 986 l 930 1041 l 255 1041 "},"e":{"x_min":85.390625,"x_max":819.453125,"ha":833,"o":"m 819 569 l 758 694 l 522 694 b 252 593 430 694 334 658 b 94 347 172 527 116 440 b 138 101 73 254 88 166 b 362 0 191 36 270 0 l 598 0 l 718 126 l 737 212 l 579 115 l 388 115 b 205 288 281 115 206 188 l 755 288 l 819 569 m 231 405 b 495 579 280 505 388 579 l 686 579 l 716 552 l 681 405 l 231 405 "},"Ã":{"x_min":15.28125,"x_max":904.171875,"ha":833,"o":"m 570 1225 l 647 1113 l 738 1113 l 904 1261 l 881 1308 l 716 1219 l 590 1308 l 402 1208 l 381 1113 l 447 1113 l 570 1225 m 86 86 l 27 58 l 15 0 l 123 0 l 195 58 l 288 463 l 627 463 l 534 58 l 581 0 l 690 0 l 702 58 l 658 86 l 798 695 b 752 943 820 788 804 876 b 593 1041 726 977 686 1025 b 386 943 491 1025 429 977 b 226 695 304 876 248 788 l 86 86 m 655 579 l 316 579 l 343 695 b 565 922 368 802 461 895 b 681 695 656 895 706 802 l 655 579 "},"J":{"x_min":58.328125,"x_max":930.5625,"ha":833,"o":"m 818 1041 l 747 984 l 640 522 b 506 219 612 406 566 300 b 368 115 458 154 408 115 l 301 115 l 168 261 l 245 500 l 201 558 l 143 558 l 58 188 l 231 0 l 341 0 b 481 50 386 0 434 16 b 598 168 522 77 562 118 b 755 522 669 262 725 388 l 850 930 l 918 987 l 930 1041 l 818 1041 "},"»":{"x_min":180.5625,"x_max":652.78125,"ha":833,"o":"m 430 422 l 230 612 l 183 579 l 322 376 l 180 176 l 227 143 l 430 330 l 430 422 m 452 612 l 405 579 l 544 376 l 402 176 l 450 143 l 652 330 l 652 422 l 452 612 "},"©":{"x_min":77.78125,"x_max":754.171875,"ha":833,"o":"m 348 694 b 231 654 308 694 268 680 b 148 558 200 630 172 598 b 77 354 102 480 77 433 l 77 340 b 148 136 77 259 102 213 b 231 40 172 95 200 62 b 348 0 268 13 308 0 l 483 0 b 600 40 523 0 563 13 b 683 136 631 62 659 95 b 754 340 729 213 754 259 l 754 354 b 683 558 754 433 729 480 b 600 654 659 598 631 630 b 483 694 563 680 523 694 l 348 694 m 348 94 b 230 183 306 94 261 130 b 172 340 195 241 172 275 l 172 354 b 230 511 172 419 195 451 b 348 598 262 563 306 598 l 483 598 b 601 511 525 598 569 563 b 659 354 636 451 659 419 l 659 340 b 601 183 659 275 636 241 b 483 94 570 130 525 94 l 348 94 m 497 465 l 565 415 l 565 461 l 519 523 l 401 523 b 279 472 355 523 312 505 b 227 348 245 438 227 395 b 279 226 227 302 245 259 b 401 175 312 193 355 175 l 519 175 l 565 238 l 565 281 l 497 233 l 401 233 b 286 348 337 233 286 284 b 401 465 286 412 337 465 l 497 465 "},"˘":{"x_min":261.109375,"x_max":570.828125,"ha":833,"o":"m 376 1083 b 415 1038 376 1058 394 1038 b 454 1083 437 1038 454 1058 l 570 1083 b 415 922 570 994 501 922 b 261 1083 330 922 261 994 l 376 1083 "},"≥":{"x_min":37.5,"x_max":780.5625,"ha":833,"o":"m 772 600 l 275 833 l 233 786 l 629 538 l 120 294 l 138 244 l 744 479 l 772 520 l 780 556 l 772 600 m 50 58 l 37 0 l 613 0 l 683 58 l 697 115 l 640 115 l 50 58 "},"ò":{"x_min":84.9375,"x_max":780.953125,"ha":833,"o":"m 483 920 l 450 873 l 229 1027 l 215 1108 l 248 1155 l 294 1122 l 483 920 m 445 694 b 319 654 405 694 362 680 b 213 558 281 630 247 598 b 95 354 150 480 115 433 l 93 340 b 116 136 75 259 88 213 b 177 40 130 95 151 62 b 286 0 208 13 245 0 l 419 0 b 545 40 459 0 504 13 b 651 136 583 62 619 95 b 769 340 715 213 751 259 l 772 354 b 748 558 791 433 776 480 b 687 654 734 598 713 630 b 580 694 658 680 620 694 l 445 694 m 312 115 b 230 194 277 115 247 144 b 208 340 208 254 194 281 l 211 354 b 301 500 225 412 252 440 b 419 577 341 550 384 577 l 554 577 b 636 500 588 577 618 550 b 656 354 656 440 670 412 l 654 340 b 565 194 640 281 613 254 b 445 115 525 144 481 115 l 312 115 "},"^":{"x_min":93.0625,"x_max":812.5,"ha":833,"o":"m 812 426 l 641 1041 l 550 1041 l 93 426 l 147 393 l 565 913 l 744 393 l 812 426 "},"«":{"x_min":180.5625,"x_max":652.78125,"ha":833,"o":"m 430 583 l 383 616 l 180 429 l 180 337 l 380 147 l 427 180 l 288 383 l 430 583 m 652 583 l 605 616 l 402 429 l 402 337 l 602 147 l 650 180 l 511 383 l 652 583 "},"D":{"x_min":15.28125,"x_max":830.015625,"ha":833,"o":"m 255 1043 l 241 984 l 287 956 l 86 84 l 27 58 l 15 0 l 341 0 b 497 45 393 0 444 15 b 633 162 544 75 590 113 b 809 522 715 259 777 387 b 798 880 840 655 836 783 b 716 997 779 929 751 969 b 581 1043 677 1027 633 1043 l 255 1043 m 208 115 l 395 927 l 555 927 b 686 819 612 926 658 888 b 693 522 716 740 719 634 b 548 225 668 408 616 302 b 368 115 488 154 425 115 l 208 115 "},"ÿ":{"x_min":45.0625,"x_max":850,"ha":833,"o":"m 112 1026 l 112 868 l 279 868 l 279 968 l 219 1026 l 112 1026 m 429 1026 l 429 868 l 595 868 l 595 968 l 536 1026 l 429 1026 m 741 694 l 669 636 l 570 208 l 420 115 l 390 115 b 248 298 288 115 225 197 l 326 636 l 283 694 l 175 694 l 161 636 l 205 609 l 133 298 b 172 87 115 218 127 143 b 351 0 212 33 276 2 l 440 0 l 548 113 l 490 -138 l 340 -231 l 309 -231 b 168 -48 208 -231 145 -150 l 52 -48 b 91 -259 34 -129 48 -204 b 270 -347 131 -313 195 -344 l 359 -347 l 376 -330 l 605 -138 l 779 609 l 836 636 l 850 694 l 741 694 "},"í":{"x_min":15.28125,"x_max":704.171875,"ha":833,"o":"m 225 920 l 258 873 l 479 1027 l 493 1108 l 459 1155 l 413 1122 l 225 920 m 659 116 l 544 88 l 497 115 l 616 634 l 572 694 l 244 694 l 227 622 l 491 595 l 380 115 l 309 83 l 100 116 l 27 56 l 15 1 l 354 1 l 418 29 l 470 1 l 691 1 l 704 56 l 659 116 "},"ˆ":{"x_min":180.5625,"x_max":650,"ha":833,"o":"m 650 906 l 461 1108 l 369 1108 l 180 906 l 213 859 l 415 1000 l 616 859 l 650 906 "},"w":{"x_min":108.328125,"x_max":851.390625,"ha":833,"o":"m 670 637 l 575 222 b 570 220 573 220 570 220 b 544 204 561 215 551 209 b 495 161 526 191 511 176 b 472 201 490 176 481 188 l 463 209 l 459 212 l 529 511 l 483 569 l 426 569 l 345 218 l 344 212 b 283 161 322 198 302 180 b 259 201 277 176 269 188 b 244 216 255 206 250 212 b 234 222 243 216 234 222 l 330 637 l 284 694 l 176 694 l 163 637 l 206 609 l 108 183 b 190 0 198 162 211 94 l 191 0 l 305 0 l 312 25 b 345 104 319 51 329 77 b 369 137 352 115 359 127 b 388 155 375 144 383 152 b 395 148 390 155 394 150 l 404 130 b 411 84 408 116 409 101 b 408 36 411 69 411 52 l 404 15 l 402 5 b 402 0 402 4 401 0 b 411 0 401 -1 409 0 l 518 0 b 681 183 538 94 579 148 l 780 611 l 838 637 l 851 694 l 741 694 l 670 637 "},"$":{"x_min":41.671875,"x_max":904.171875,"ha":833,"o":"m 873 1041 l 650 1041 l 666 1111 l 550 1111 l 533 1041 l 498 1041 b 198 798 365 1041 230 933 l 190 758 l 408 493 l 319 109 l 155 116 l 125 230 l 68 230 l 41 115 l 72 0 l 294 0 l 275 -83 l 391 -83 l 411 0 l 447 0 b 745 243 580 0 715 109 l 755 283 l 537 548 l 626 933 l 790 926 l 819 811 l 876 811 l 904 926 l 873 1041 m 445 659 l 312 822 b 475 940 340 875 418 943 l 509 938 l 445 659 m 631 219 b 470 102 604 168 526 100 l 434 104 l 498 381 l 631 219 "},"\\":{"x_min":77.78125,"x_max":755.5625,"ha":833,"o":"m 77 1015 l 654 -26 l 755 29 l 179 1072 l 77 1015 "},"Ì":{"x_min":15.28125,"x_max":930.5625,"ha":833,"o":"m 743 1129 l 698 1081 l 513 1236 l 518 1316 l 562 1363 l 601 1330 l 743 1129 m 930 1041 l 255 1041 l 241 984 l 337 926 l 518 926 l 330 115 l 150 115 l 27 58 l 15 0 l 690 0 l 702 56 l 659 115 l 445 115 l 633 926 l 847 926 l 916 986 l 930 1041 "},"’":{"x_min":444.4375,"x_max":663.890625,"ha":833,"o":"m 525 1041 l 444 697 l 511 697 l 600 766 l 663 1041 l 525 1041 "},"-":{"x_min":211.109375,"x_max":622.21875,"ha":833,"o":"m 211 359 l 211 301 l 565 301 l 622 359 l 622 416 l 565 416 l 211 359 "},"Q":{"x_min":94.734375,"x_max":851.4375,"ha":833,"o":"m 526 1043 b 400 1002 486 1043 443 1029 b 294 906 363 979 327 947 b 156 619 230 829 181 726 l 112 423 b 116 136 87 315 88 213 b 177 40 130 95 151 62 b 286 0 208 13 245 0 l 419 0 b 540 36 458 0 500 12 l 568 0 l 650 0 l 700 40 l 669 81 l 633 113 l 651 136 b 788 423 715 213 763 315 l 834 619 b 830 906 858 726 856 829 b 768 1002 815 947 794 979 b 659 1043 738 1029 701 1043 l 526 1043 m 555 183 l 404 320 l 352 279 l 475 120 b 445 115 465 118 455 115 l 312 115 b 230 194 277 115 247 144 b 227 423 208 254 208 337 l 273 619 b 380 848 293 705 331 788 b 500 926 422 898 465 926 l 633 926 b 716 848 668 926 698 898 b 718 619 737 788 737 705 l 673 423 b 565 194 652 337 613 254 l 555 183 "},"M":{"x_min":15.28125,"x_max":850.71875,"ha":833,"o":"m 672 1041 l 619 941 b 580 1011 611 970 597 993 b 502 1041 559 1030 531 1041 l 427 1041 l 402 993 l 363 1041 l 255 1041 l 241 984 l 287 956 l 86 84 l 27 58 l 15 0 l 122 0 l 194 58 l 375 837 l 469 926 l 475 926 b 501 743 495 926 529 862 l 394 465 l 511 465 l 618 743 b 630 848 626 780 630 815 l 712 926 b 731 805 719 916 731 883 b 694 520 731 726 718 626 b 600 237 670 416 637 315 b 534 125 572 175 548 141 l 505 0 b 618 63 552 0 593 34 b 691 179 643 91 668 130 b 809 520 738 270 780 393 b 850 863 840 650 854 772 b 829 979 848 912 841 951 b 745 1041 808 1030 772 1041 l 672 1041 "},"C":{"x_min":114.4375,"x_max":886.109375,"ha":833,"o":"m 455 115 l 388 115 b 258 225 331 115 286 154 b 251 522 227 302 225 408 b 395 819 276 634 327 740 b 576 927 455 888 519 927 l 643 927 l 856 729 l 886 855 l 712 1043 l 602 1043 b 447 997 552 1043 500 1027 b 311 880 400 969 354 929 b 134 522 229 783 166 656 b 145 162 104 387 108 259 b 227 45 165 113 193 75 b 362 0 266 15 311 0 l 472 0 l 731 188 l 761 313 l 455 115 "},"!":{"x_min":272.21875,"x_max":677.78125,"ha":833,"o":"m 570 1043 l 497 984 l 340 301 l 447 301 l 663 984 l 677 1043 l 570 1043 m 308 158 l 272 0 l 438 0 l 461 100 l 415 158 l 308 158 "},"È":{"x_min":15.28125,"x_max":930.5625,"ha":833,"o":"m 743 1129 l 698 1081 l 513 1236 l 518 1316 l 562 1363 l 601 1330 l 743 1129 m 930 1041 l 255 1041 l 241 984 l 287 956 l 86 84 l 27 58 l 15 0 l 690 0 l 702 56 l 659 115 l 204 101 l 302 525 l 615 525 l 687 583 l 700 640 l 329 640 l 398 940 l 847 926 l 916 986 l 930 1041 "},"{":{"x_min":247.21875,"x_max":858.328125,"ha":833,"o":"m 318 590 l 452 590 l 555 1040 l 562 1041 l 556 1041 l 627 1100 l 813 1100 l 858 1041 l 844 984 l 658 984 l 568 590 l 497 531 l 540 473 l 444 58 l 630 58 l 618 1 l 547 -58 l 361 -58 l 316 1 l 426 475 l 291 475 l 247 530 l 318 590 "},"X":{"x_min":27.78125,"x_max":915.28125,"ha":833,"o":"m 829 1041 l 498 636 l 355 1041 l 241 983 l 404 520 l 27 58 l 115 0 l 445 405 l 588 0 l 701 58 l 538 520 l 915 983 l 829 1041 "},"ô":{"x_min":84.9375,"x_max":780.953125,"ha":833,"o":"m 352 1000 l 554 859 l 587 906 l 398 1108 l 306 1108 l 118 906 l 151 859 l 352 1000 m 445 694 b 319 654 405 694 362 680 b 213 558 281 630 247 598 b 95 354 150 480 115 433 l 93 340 b 116 136 75 259 88 213 b 177 40 130 95 151 62 b 286 0 208 13 245 0 l 419 0 b 545 40 459 0 504 13 b 651 136 583 62 619 95 b 769 340 715 213 751 259 l 772 354 b 748 558 791 433 776 480 b 687 654 734 598 713 630 b 580 694 658 680 620 694 l 445 694 m 654 340 b 565 194 640 281 613 254 b 445 115 525 144 481 115 l 312 115 b 230 194 277 115 247 144 b 208 340 208 254 194 281 l 211 354 b 301 500 225 412 252 440 b 419 577 341 550 384 577 l 554 577 b 636 500 588 577 618 550 b 656 354 656 440 670 412 l 654 340 "},"#":{"x_min":22.21875,"x_max":915.28125,"ha":833,"o":"m 915 973 l 812 1006 l 658 716 l 506 716 l 643 973 l 540 1006 l 386 716 l 241 716 l 215 601 l 323 601 l 212 391 l 105 391 l 79 276 l 151 276 l 22 34 l 126 1 l 272 276 l 423 276 l 295 34 l 398 1 l 544 276 l 694 276 l 720 391 l 605 391 l 718 601 l 829 601 l 855 716 l 779 716 l 915 973 m 486 391 l 333 391 l 445 601 l 597 601 l 486 391 "},"Ê":{"x_min":15.28125,"x_max":930.5625,"ha":833,"o":"m 637 1236 l 806 1095 l 851 1143 l 708 1344 l 616 1344 l 381 1143 l 404 1095 l 637 1236 m 255 1041 l 241 984 l 287 956 l 86 84 l 27 58 l 15 0 l 690 0 l 702 56 l 659 115 l 204 101 l 302 525 l 615 525 l 687 583 l 700 640 l 329 640 l 398 940 l 847 926 l 916 986 l 930 1041 l 255 1041 "},")":{"x_min":120.828125,"x_max":661.359375,"ha":833,"o":"m 361 986 b 513 861 427 986 481 941 b 543 711 531 818 540 766 b 522 522 544 651 537 587 b 455 334 508 456 484 394 b 356 184 427 277 394 227 b 147 59 288 104 213 59 l 120 -56 b 293 -5 176 -56 234 -38 b 441 123 344 25 395 68 b 637 522 534 230 602 372 b 626 922 672 672 669 813 b 536 1051 605 976 573 1019 b 388 1101 494 1084 444 1101 l 361 986 "},"â":{"x_min":63.4375,"x_max":752.484375,"ha":833,"o":"m 352 1000 l 554 859 l 587 906 l 398 1108 l 306 1108 l 118 906 l 151 859 l 352 1000 m 279 520 b 306 538 287 526 295 533 b 462 579 351 565 406 579 b 600 543 518 579 568 569 b 630 466 636 515 634 481 l 611 379 l 538 461 l 470 461 b 222 402 383 461 294 440 b 125 331 183 383 150 359 b 68 230 95 301 76 266 b 77 130 59 195 62 161 b 141 59 91 102 113 79 b 365 1 197 22 277 1 l 461 1 l 536 58 l 583 1 l 691 1 l 704 58 l 659 86 l 747 466 b 741 568 755 501 754 537 b 687 640 731 595 713 619 b 488 695 638 677 568 695 b 263 636 409 695 330 673 b 220 605 248 626 234 616 l 279 520 m 559 158 l 431 116 l 391 116 b 225 159 325 116 263 131 b 183 230 193 180 177 206 b 258 302 188 255 215 281 b 444 345 311 330 377 345 l 484 345 l 593 302 l 559 158 "},"}":{"x_min":125,"x_max":741.671875,"ha":833,"o":"m 698 590 l 563 590 l 666 1040 l 661 1041 l 668 1041 l 622 1100 l 436 1100 l 365 1041 l 351 984 l 537 984 l 447 590 l 490 531 l 419 473 l 323 58 l 137 58 l 125 1 l 169 -58 l 355 -58 l 427 1 l 537 475 l 672 475 l 741 530 l 698 590 "},"Ä":{"x_min":15.28125,"x_max":876.390625,"ha":833,"o":"m 559 1218 l 513 1276 l 406 1276 l 369 1118 l 536 1118 l 559 1218 m 830 1276 l 723 1276 l 686 1118 l 852 1118 l 876 1218 l 830 1276 m 86 86 l 27 58 l 15 0 l 123 0 l 195 58 l 288 463 l 627 463 l 534 58 l 581 0 l 690 0 l 702 58 l 658 86 l 798 695 b 752 943 820 788 804 876 b 593 1041 726 977 686 1025 b 386 943 491 1025 429 977 b 226 695 304 876 248 788 l 86 86 m 655 579 l 316 579 l 343 695 b 565 922 368 802 461 895 b 681 695 656 895 706 802 l 655 579 "},"a":{"x_min":63.4375,"x_max":752.484375,"ha":833,"o":"m 659 86 l 747 466 b 741 568 755 501 754 537 b 687 640 731 595 713 619 b 488 695 638 677 568 695 b 263 636 409 695 330 673 b 220 605 248 626 234 616 l 279 520 b 306 538 287 526 295 533 b 462 579 351 565 406 579 b 600 543 518 579 568 569 b 630 466 636 515 634 481 l 611 379 l 538 461 l 470 461 b 222 402 383 461 294 440 b 125 331 183 383 150 359 b 68 230 95 301 76 266 b 77 130 59 195 62 161 b 141 59 91 102 113 79 b 365 1 197 22 277 1 l 461 1 l 536 58 l 583 1 l 691 1 l 704 58 l 659 86 m 431 116 l 391 116 b 225 159 325 116 263 131 b 183 230 193 180 177 206 b 258 302 188 255 215 281 b 444 345 311 330 377 345 l 484 345 l 593 302 l 559 158 l 431 116 "},"—":{"x_min":100,"x_max":733.328125,"ha":833,"o":"m 100 359 l 100 301 l 676 301 l 733 359 l 733 416 l 676 416 l 100 359 "},"=":{"x_min":93.0625,"x_max":831.953125,"ha":833,"o":"m 156 581 l 144 523 l 748 523 l 818 581 l 831 638 l 775 638 l 156 581 m 105 359 l 93 301 l 697 301 l 766 359 l 780 416 l 723 416 l 105 359 "},"N":{"x_min":15.28125,"x_max":930.5625,"ha":833,"o":"m 930 1041 l 822 1041 l 750 984 l 590 291 l 393 1041 l 255 1041 l 241 984 l 287 956 l 86 84 l 27 58 l 15 0 l 122 0 l 194 58 l 344 708 l 531 0 l 638 0 l 859 956 l 916 984 l 930 1041 "},"˚":{"x_min":248.609375,"x_max":581.9375,"ha":833,"o":"m 415 847 b 581 1013 506 847 581 922 b 415 1180 581 1105 506 1180 b 248 1013 323 1180 248 1105 b 415 847 248 922 323 847 m 415 944 b 345 1013 377 944 345 975 b 415 1083 345 1052 377 1083 b 484 1013 454 1083 484 1052 b 415 944 484 975 454 944 "},"ú":{"x_min":128.390625,"x_max":852.78125,"ha":833,"o":"m 225 920 l 258 873 l 479 1027 l 493 1108 l 459 1155 l 413 1122 l 225 920 m 840 637 l 852 695 l 744 695 l 673 637 l 573 209 l 423 116 l 393 116 b 251 298 291 116 229 198 l 330 637 l 286 694 l 177 694 l 165 637 l 208 611 l 136 298 b 175 87 118 219 131 144 b 354 0 215 34 279 4 l 443 0 l 552 115 l 538 58 l 584 0 l 693 0 l 705 58 l 661 86 l 781 609 l 840 637 "},"⁄":{"x_min":77.78125,"x_max":755.5625,"ha":833,"o":"m 77 29 l 654 1072 l 755 1015 l 179 -26 l 77 29 "},"2":{"x_min":16.671875,"x_max":862.015625,"ha":833,"o":"m 168 115 b 266 281 194 179 227 236 b 430 384 298 320 362 384 b 697 479 522 384 616 418 b 854 713 777 541 833 625 b 804 948 873 802 856 886 b 584 1043 754 1008 675 1043 l 475 1043 l 211 852 l 268 765 l 490 927 l 555 927 b 737 713 683 927 765 831 b 456 500 711 595 584 500 b 309 454 408 500 358 484 b 181 343 263 427 222 390 b 16 0 104 250 45 129 l 690 0 l 702 56 l 658 115 l 168 115 "},"ü":{"x_min":112.5,"x_max":852.78125,"ha":833,"o":"m 112 1026 l 112 868 l 279 868 l 279 968 l 219 1026 l 112 1026 m 429 1026 l 429 868 l 595 868 l 595 968 l 536 1026 l 429 1026 m 840 637 l 852 695 l 744 695 l 673 637 l 573 209 l 423 116 l 393 116 b 251 298 291 116 229 198 l 330 637 l 286 694 l 177 694 l 165 637 l 208 611 l 136 298 b 175 87 118 219 131 144 b 354 0 215 34 279 4 l 443 0 l 552 115 l 538 58 l 584 0 l 693 0 l 705 58 l 661 86 l 781 609 l 840 637 "},"¯":{"x_min":100,"x_max":733.328125,"ha":833,"o":"m 100 1041 l 100 983 l 676 983 l 733 1041 l 733 1098 l 676 1098 l 100 1041 "},"Z":{"x_min":40.28125,"x_max":905.5625,"ha":833,"o":"m 905 930 l 873 1041 l 312 1041 l 229 926 l 201 811 l 258 811 l 345 930 l 823 930 l 54 172 l 40 111 l 72 0 l 633 0 l 716 115 l 743 230 l 686 230 l 598 112 l 120 112 l 891 870 l 905 930 "},"u":{"x_min":128.390625,"x_max":852.78125,"ha":833,"o":"m 840 637 l 852 695 l 744 695 l 673 637 l 573 209 l 423 116 l 393 116 b 251 298 291 116 229 198 l 330 637 l 286 694 l 177 694 l 165 637 l 208 611 l 136 298 b 175 87 118 219 131 144 b 354 0 215 34 279 4 l 443 0 l 552 115 l 538 58 l 584 0 l 693 0 l 705 58 l 661 86 l 781 609 l 840 637 "},"˜":{"x_min":187.5,"x_max":676.390625,"ha":833,"o":"m 643 1072 l 498 983 l 351 1072 l 187 972 l 187 877 l 252 877 l 351 988 l 452 877 l 544 877 l 676 1025 l 643 1072 "},"Ó":{"x_min":94.734375,"x_max":851.296875,"ha":833,"o":"m 484 1129 l 506 1081 l 763 1236 l 795 1316 l 773 1363 l 720 1330 l 484 1129 m 526 1043 b 400 1002 486 1043 443 1029 b 294 906 362 979 327 947 b 158 619 230 829 181 726 l 112 423 b 116 136 87 315 88 213 b 177 40 130 95 151 62 b 286 0 208 13 245 0 l 420 0 b 545 40 461 0 504 13 b 651 136 583 62 618 95 b 788 423 715 213 763 315 l 834 619 b 829 906 858 726 856 829 b 768 1002 815 947 794 979 b 661 1043 738 1029 701 1043 l 526 1043 m 312 115 b 230 194 277 115 248 144 b 227 423 209 254 209 337 l 273 619 b 381 848 293 705 333 788 b 500 926 422 898 465 926 l 634 926 b 716 848 669 926 698 898 b 719 619 737 788 738 705 l 673 423 b 565 194 654 337 613 254 b 447 115 525 144 481 115 l 312 115 "},"k":{"x_min":15.28125,"x_max":834.71875,"ha":833,"o":"m 834 604 l 801 705 l 284 450 l 408 984 l 363 1043 l 255 1043 l 241 984 l 287 956 l 86 86 l 27 58 l 15 0 l 123 0 l 194 58 l 252 308 l 626 0 l 718 97 l 369 373 l 834 604 "},"ˇ":{"x_min":179.171875,"x_max":648.609375,"ha":833,"o":"m 615 1127 l 415 986 l 212 1127 l 179 1080 l 369 877 l 461 877 l 648 1080 l 615 1127 "},"Ù":{"x_min":146.125,"x_max":930.5625,"ha":833,"o":"m 743 1129 l 698 1081 l 513 1236 l 518 1316 l 562 1363 l 601 1330 l 743 1129 m 930 1041 l 820 1041 l 750 984 l 622 425 b 513 194 602 337 562 254 b 395 116 473 145 430 116 l 363 116 b 281 194 329 116 300 145 b 279 425 261 254 259 337 l 408 984 l 365 1041 l 255 1041 l 241 984 l 287 958 l 163 425 b 168 136 138 316 140 213 b 229 40 181 95 202 63 b 337 1 259 15 297 1 l 369 1 b 494 40 409 1 452 15 b 600 136 531 63 566 95 b 737 425 663 213 712 316 l 859 958 l 916 984 l 930 1041 "},"€":{"x_min":100,"x_max":900,"ha":833,"o":"m 713 927 l 870 781 l 900 913 l 783 1043 l 673 1043 b 518 997 623 1043 569 1027 b 381 880 470 969 425 929 b 240 633 323 811 273 726 l 162 626 l 148 568 l 218 568 l 205 522 b 188 426 198 490 193 458 l 113 418 l 100 359 l 184 359 b 216 162 184 286 194 219 b 298 45 236 113 263 75 b 433 0 336 15 383 0 l 543 0 l 719 131 l 750 261 l 526 115 l 459 115 b 329 225 402 115 356 154 b 304 359 313 263 305 309 l 590 359 l 661 418 l 675 475 l 618 475 l 306 440 b 320 522 309 466 313 494 b 333 568 325 537 329 552 l 736 568 l 806 626 l 819 683 l 762 683 l 361 645 b 466 819 388 711 425 769 b 647 927 526 888 590 927 l 713 927 "},"¢":{"x_min":88.421875,"x_max":822.21875,"ha":833,"o":"m 688 579 l 801 480 l 822 570 l 761 695 l 623 695 l 650 811 l 533 811 l 506 695 b 255 593 420 690 331 655 b 97 347 175 527 119 440 b 141 101 76 255 93 168 b 347 0 190 40 262 5 l 320 -111 l 437 -111 l 462 0 l 601 0 l 720 126 l 740 212 l 581 115 l 490 115 l 597 579 l 688 579 m 373 116 b 212 347 255 125 184 226 b 479 577 241 468 358 569 l 373 116 "},"é":{"x_min":85.390625,"x_max":819.453125,"ha":833,"o":"m 225 920 l 258 873 l 479 1027 l 493 1108 l 459 1155 l 413 1122 l 225 920 m 819 569 l 758 694 l 522 694 b 252 593 430 694 334 658 b 94 347 172 527 116 440 b 138 101 73 254 88 166 b 362 0 191 36 270 0 l 598 0 l 718 126 l 737 212 l 579 115 l 388 115 b 205 288 281 115 206 188 l 755 288 l 819 569 m 231 405 b 495 579 280 505 388 579 l 686 579 l 716 552 l 681 405 l 231 405 "},"s":{"x_min":44.4375,"x_max":826.390625,"ha":833,"o":"m 712 579 l 743 463 l 800 463 l 826 579 l 795 694 l 420 694 b 122 451 287 694 152 586 l 112 411 l 618 205 b 473 102 588 154 529 100 l 158 116 l 127 230 l 70 230 l 44 115 l 75 0 l 450 0 b 748 243 583 0 718 109 l 758 283 l 252 488 b 397 593 280 541 341 595 l 712 579 "},"B":{"x_min":15.28125,"x_max":856.75,"ha":833,"o":"m 705 595 b 797 677 740 618 772 645 b 851 784 825 711 843 747 b 847 891 859 822 858 856 b 791 973 836 922 816 950 b 594 1043 744 1016 675 1041 l 255 1043 l 241 984 l 287 956 l 86 86 l 27 58 l 15 0 l 181 0 l 206 109 l 266 0 l 341 0 b 606 91 433 0 527 33 b 705 194 645 122 677 155 b 762 320 734 234 752 276 b 763 447 772 365 773 406 b 712 548 754 486 737 519 b 679 580 702 561 690 570 l 705 595 m 555 927 b 701 880 615 927 666 911 b 734 784 730 852 743 819 b 656 687 726 748 698 715 b 497 640 611 658 554 641 l 329 640 l 395 927 l 555 927 m 336 116 l 226 195 l 302 525 l 470 525 b 647 320 593 520 672 430 b 368 116 620 208 495 116 l 336 116 "},"…":{"x_min":125,"x_max":708.328125,"ha":833,"o":"m 125 158 l 125 0 l 263 0 l 263 100 l 204 158 l 125 158 m 347 158 l 347 0 l 486 0 l 486 100 l 426 158 l 347 158 m 648 158 l 569 158 l 569 0 l 708 0 l 708 100 l 648 158 "},"?":{"x_min":176.390625,"x_max":861.484375,"ha":833,"o":"m 475 1041 l 211 852 l 176 698 l 491 926 l 555 926 b 737 712 683 926 765 830 b 522 506 715 615 625 531 l 455 506 l 372 440 l 340 301 l 465 301 l 484 387 b 695 477 558 397 631 429 b 852 712 776 540 831 623 b 804 947 873 801 856 884 b 584 1041 752 1008 675 1041 l 475 1041 m 306 158 l 270 0 l 437 0 l 459 100 l 413 158 l 306 158 "},"H":{"x_min":15.28125,"x_max":930.5625,"ha":833,"o":"m 822 1041 l 750 984 l 670 640 l 329 640 l 408 984 l 363 1041 l 255 1041 l 241 984 l 287 956 l 86 84 l 27 58 l 15 0 l 122 0 l 194 58 l 302 525 l 643 525 l 536 58 l 581 0 l 690 0 l 702 58 l 658 84 l 859 956 l 916 984 l 930 1041 l 822 1041 "},"î":{"x_min":15.28125,"x_max":704.171875,"ha":833,"o":"m 352 1000 l 554 859 l 587 906 l 398 1108 l 306 1108 l 118 906 l 151 859 l 352 1000 m 659 116 l 544 88 l 497 115 l 616 634 l 572 694 l 244 694 l 227 622 l 491 595 l 380 115 l 309 83 l 100 116 l 27 56 l 15 1 l 354 1 l 418 29 l 470 1 l 691 1 l 704 56 l 659 116 "},"c":{"x_min":88.421875,"x_max":822.21875,"ha":833,"o":"m 688 579 l 801 480 l 822 570 l 761 695 l 525 695 b 255 593 433 695 337 659 b 97 347 175 527 119 440 b 141 101 76 255 93 168 b 365 0 194 36 273 0 l 601 0 l 720 126 l 740 212 l 581 115 l 391 115 b 212 347 263 115 183 219 b 498 579 243 475 370 579 l 688 579 "},"¶":{"x_min":164.875,"x_max":929.171875,"ha":833,"o":"m 812 1041 l 795 970 b 768 1001 787 981 777 991 b 668 1041 738 1026 705 1040 l 526 1041 b 400 1001 486 1041 441 1027 b 294 905 362 977 327 945 b 176 701 230 827 194 780 l 173 687 b 197 483 154 606 169 561 b 258 387 211 443 231 409 b 365 347 288 361 325 347 l 390 347 l 273 -158 l 390 -158 l 640 925 b 715 847 672 920 700 893 b 740 730 730 802 741 769 l 534 -158 l 651 -158 l 929 1041 l 812 1041 "},"−":{"x_min":86.109375,"x_max":748.609375,"ha":833,"o":"m 86 359 l 86 301 l 691 301 l 748 359 l 748 416 l 691 416 l 86 359 "},"≠":{"x_min":106.9375,"x_max":818.0625,"ha":833,"o":"m 734 523 l 804 581 l 818 638 l 761 638 l 620 625 l 773 820 l 698 877 l 493 612 l 170 581 l 158 523 l 422 523 l 309 377 l 119 359 l 106 301 l 250 301 l 126 143 l 201 87 l 368 301 l 683 301 l 752 359 l 766 416 l 709 416 l 437 390 l 541 523 l 734 523 "},"•":{"x_min":277.78125,"x_max":555.5625,"ha":833,"o":"m 277 576 l 277 306 l 555 306 l 555 462 l 440 576 l 277 576 "},"¥":{"x_min":98.609375,"x_max":931.953125,"ha":833,"o":"m 823 1041 l 751 984 l 676 659 b 486 575 611 658 538 625 b 334 659 455 625 401 658 l 409 984 l 365 1041 l 256 1041 l 243 984 l 288 956 l 227 694 l 277 597 l 293 597 b 319 593 302 597 311 595 b 370 561 338 587 356 576 b 400 458 397 534 405 497 l 400 454 l 163 429 l 150 370 l 380 370 l 348 231 l 112 206 l 98 148 l 329 148 l 295 0 l 412 0 l 445 148 l 619 148 l 690 206 l 702 263 l 645 263 l 468 244 l 497 370 l 670 370 l 741 429 l 754 486 l 697 486 l 522 468 b 583 551 534 498 554 527 b 705 597 619 581 663 595 l 800 694 l 861 956 l 918 984 l 931 1041 l 823 1041 "},"(":{"x_min":286.9375,"x_max":827.78125,"ha":833,"o":"m 800 986 b 591 861 733 986 659 941 b 494 711 555 818 520 766 b 426 522 463 651 441 587 b 406 334 412 456 404 394 b 434 184 408 277 418 227 b 586 59 466 104 519 59 l 559 -56 b 413 -5 504 -56 454 -38 b 322 123 375 25 344 68 b 309 522 280 230 275 372 b 506 922 344 672 415 813 b 656 1051 554 976 604 1019 b 827 1101 713 1084 772 1101 l 800 986 "},"U":{"x_min":148.90625,"x_max":933.328125,"ha":833,"o":"m 933 1041 l 823 1041 l 752 984 l 625 425 b 516 194 605 337 565 254 b 398 116 476 145 433 116 l 366 116 b 284 194 331 116 302 145 b 281 425 263 254 262 337 l 411 984 l 368 1041 l 258 1041 l 244 984 l 290 958 l 166 425 b 170 136 141 316 143 213 b 231 40 184 95 205 63 b 340 1 262 15 300 1 l 372 1 b 497 40 412 1 455 15 b 602 136 534 63 569 95 b 740 425 666 213 715 316 l 862 958 l 919 984 l 933 1041 "},"Ñ":{"x_min":15.28125,"x_max":930.5625,"ha":833,"o":"m 577 1252 l 652 1141 l 744 1141 l 911 1288 l 888 1336 l 723 1247 l 597 1336 l 409 1236 l 387 1141 l 452 1141 l 577 1252 m 822 1041 l 750 984 l 590 291 l 393 1041 l 255 1041 l 241 984 l 287 956 l 86 84 l 27 58 l 15 0 l 123 0 l 194 58 l 344 708 l 531 0 l 638 0 l 859 956 l 916 984 l 930 1041 l 822 1041 "},"F":{"x_min":15.28125,"x_max":930.5625,"ha":833,"o":"m 255 1041 l 241 984 l 287 956 l 86 84 l 27 58 l 15 0 l 181 0 l 302 525 l 733 525 l 805 583 l 818 640 l 329 640 l 398 940 l 847 926 l 918 986 l 930 1041 l 255 1041 "},":":{"x_min":270.828125,"x_max":583.328125,"ha":833,"o":"m 430 694 l 394 536 l 561 536 l 583 636 l 537 694 l 430 694 m 306 158 l 270 0 l 437 0 l 459 100 l 413 158 l 306 158 "},"Û":{"x_min":146.125,"x_max":930.5625,"ha":833,"o":"m 637 1236 l 806 1095 l 851 1143 l 708 1344 l 616 1344 l 381 1143 l 404 1095 l 637 1236 m 820 1041 l 750 984 l 622 425 b 513 194 602 337 562 254 b 395 116 473 145 430 116 l 363 116 b 281 194 329 116 300 145 b 279 425 261 254 259 337 l 408 984 l 365 1041 l 255 1041 l 241 984 l 287 958 l 163 425 b 168 136 138 316 140 213 b 229 40 181 95 202 63 b 337 1 259 15 297 1 l 369 1 b 494 40 409 1 452 15 b 600 136 531 63 566 95 b 737 425 663 213 712 316 l 859 958 l 916 984 l 930 1041 l 820 1041 "},"*":{"x_min":154.171875,"x_max":680.5625,"ha":833,"o":"m 680 686 l 475 805 l 475 1041 l 359 1041 l 359 872 l 212 956 l 154 856 l 359 738 l 359 500 l 475 500 l 475 672 l 623 586 l 680 686 "},"†":{"x_min":198.609375,"x_max":802.78125,"ha":833,"o":"m 745 694 l 566 675 l 651 1041 l 534 1041 l 447 662 l 212 637 l 198 579 l 427 579 l 275 -83 l 391 -83 l 544 579 l 719 579 l 790 637 l 802 694 l 745 694 "},"°":{"x_min":248.609375,"x_max":581.9375,"ha":833,"o":"m 415 722 b 581 888 506 722 581 797 b 415 1055 581 980 506 1055 b 248 888 323 1055 248 980 b 415 722 248 797 323 722 m 415 819 b 345 888 377 819 345 850 b 415 958 345 927 377 958 b 484 888 454 958 484 927 b 415 819 484 850 454 819 "},"V":{"x_min":105.5625,"x_max":930.5625,"ha":833,"o":"m 750 984 l 576 231 b 383 133 508 218 436 183 b 234 231 352 183 298 218 l 408 984 l 363 1041 l 255 1041 l 241 984 l 287 956 l 105 169 b 294 0 200 169 319 111 l 411 0 b 677 169 436 111 583 169 l 859 956 l 916 984 l 930 1041 l 822 1041 l 750 984 "},"0":{"x_min":113.71875,"x_max":830.734375,"ha":833,"o":"m 801 880 b 723 997 783 930 756 969 b 593 1044 686 1027 643 1044 b 440 997 543 1044 491 1027 b 308 880 393 969 348 930 b 134 522 227 783 166 656 b 143 165 104 388 106 261 b 220 47 161 115 187 76 b 351 1 258 16 301 1 b 504 47 401 1 452 16 b 636 165 551 76 595 115 b 809 522 716 261 777 388 b 801 880 840 656 837 783 m 551 225 b 379 116 473 130 409 116 b 255 225 347 116 290 130 b 251 522 226 302 225 409 b 393 820 277 636 327 741 b 565 927 470 913 534 927 b 688 820 597 927 654 913 b 693 522 718 741 719 636 b 551 225 666 409 616 302 "},"”":{"x_min":338.890625,"x_max":795.828125,"ha":833,"o":"m 406 1072 l 338 775 l 418 775 l 491 833 l 545 1072 l 406 1072 m 656 1072 l 588 775 l 668 775 l 741 833 l 795 1072 l 656 1072 "},"@":{"x_min":19.53125,"x_max":691.671875,"ha":833,"o":"m 226 411 b 298 520 233 445 262 488 b 433 579 327 547 375 579 b 548 543 486 579 526 566 b 568 466 568 523 575 497 l 554 406 l 533 461 l 473 461 b 309 390 416 461 359 436 b 216 230 263 347 230 290 b 236 70 202 170 209 113 b 368 0 263 25 311 0 l 427 0 l 475 56 l 519 0 l 576 0 l 683 466 b 644 631 698 530 684 590 b 459 695 602 673 540 695 b 229 597 380 695 298 661 b 109 411 169 543 125 473 l 25 41 b 27 -59 16 8 18 -26 b 79 -145 37 -90 55 -120 b 308 -229 131 -200 213 -229 b 558 -169 405 -229 491 -208 b 691 0 627 -129 675 -66 l 576 0 b 334 -113 559 -68 463 -113 b 173 -56 268 -113 209 -94 b 140 40 140 -22 134 16 l 226 411 m 394 115 b 341 145 372 115 354 126 b 331 230 327 168 325 197 b 380 315 338 262 356 293 b 447 344 401 334 425 344 l 465 344 l 530 304 l 495 154 l 413 115 l 394 115 "},"ö":{"x_min":84.9375,"x_max":780.953125,"ha":833,"o":"m 112 1026 l 112 868 l 279 868 l 279 968 l 219 1026 l 112 1026 m 429 1026 l 429 868 l 595 868 l 595 968 l 536 1026 l 429 1026 m 445 694 b 319 654 405 694 362 680 b 213 558 281 630 247 598 b 95 354 150 480 115 433 l 93 340 b 116 136 75 259 88 213 b 177 40 130 95 151 62 b 286 0 208 13 245 0 l 419 0 b 545 40 459 0 504 13 b 651 136 583 62 619 95 b 769 340 715 213 751 259 l 772 354 b 748 558 791 433 776 480 b 687 654 734 598 713 630 b 580 694 658 680 620 694 l 445 694 m 312 115 b 230 194 277 115 247 144 b 208 340 208 254 194 281 l 211 354 b 301 500 225 412 252 440 b 419 577 341 550 384 577 l 554 577 b 636 500 588 577 618 550 b 656 354 656 440 670 412 l 654 340 b 565 194 640 281 613 254 b 445 115 525 144 481 115 l 312 115 "},"i":{"x_min":15.28125,"x_max":704.171875,"ha":833,"o":"m 684 927 l 697 984 l 651 1043 l 543 1043 l 529 984 l 625 927 l 684 927 m 659 116 l 544 88 l 497 115 l 616 634 l 572 694 l 244 694 l 227 622 l 491 595 l 380 115 l 309 83 l 100 116 l 27 56 l 15 1 l 354 1 l 418 29 l 470 1 l 691 1 l 704 56 l 659 116 "},"≤":{"x_min":50,"x_max":834.71875,"ha":833,"o":"m 834 784 l 816 834 l 209 598 l 181 556 l 173 520 l 181 477 l 680 245 l 720 293 l 325 538 l 834 784 m 63 115 l 50 58 l 94 0 l 670 0 l 683 58 l 120 115 l 63 115 "},"Õ":{"x_min":94.734375,"x_max":908.328125,"ha":833,"o":"m 575 1238 l 650 1127 l 741 1127 l 908 1275 l 884 1322 l 720 1233 l 593 1322 l 406 1222 l 384 1127 l 450 1127 l 575 1238 m 526 1043 b 400 1002 486 1043 443 1029 b 294 906 362 979 327 947 b 158 619 230 829 181 726 l 112 423 b 116 136 87 315 88 213 b 177 40 130 95 151 62 b 286 0 208 13 245 0 l 420 0 b 545 40 461 0 504 13 b 651 136 583 62 618 95 b 788 423 715 213 763 315 l 834 619 b 829 906 858 726 856 829 b 768 1002 815 947 794 979 b 661 1043 738 1029 701 1043 l 526 1043 m 673 423 b 565 194 654 337 613 254 b 447 115 525 144 481 115 l 312 115 b 230 194 277 115 248 144 b 227 423 209 254 209 337 l 273 619 b 381 848 293 705 333 788 b 500 926 422 898 465 926 l 634 926 b 716 848 669 926 698 898 b 719 619 737 788 738 705 l 673 423 "},"]":{"x_min":133.328125,"x_max":758.328125,"ha":833,"o":"m 758 1041 l 712 1100 l 443 1100 l 373 1041 l 359 984 l 629 984 l 415 56 l 145 56 l 133 0 l 176 -58 l 445 -58 l 518 0 l 758 1041 "},"m":{"x_min":15.28125,"x_max":787.671875,"ha":833,"o":"m 591 694 l 538 594 b 500 663 530 623 516 645 b 422 694 479 683 452 694 l 348 694 l 322 647 l 283 695 l 175 695 l 162 638 l 206 611 l 86 84 l 27 58 l 15 0 l 123 0 l 194 58 l 294 490 l 388 579 l 395 579 b 420 395 415 579 448 515 l 359 227 l 461 250 l 537 395 b 551 501 545 431 550 468 l 633 579 l 638 579 b 665 522 643 577 658 566 b 654 347 673 475 669 412 b 584 172 638 280 613 218 b 531 115 556 127 536 115 l 504 -1 b 675 118 538 -1 605 13 b 769 347 716 180 750 261 b 780 575 788 431 793 513 b 666 694 758 679 700 694 l 591 694 "},"8":{"x_min":74.8125,"x_max":870.53125,"ha":833,"o":"m 701 500 b 665 530 690 511 677 520 b 713 558 681 538 698 548 b 809 647 751 584 783 613 b 863 762 836 683 855 722 b 862 876 873 801 872 840 b 808 965 851 909 833 938 b 593 1043 756 1015 680 1043 b 340 965 504 1043 415 1015 b 245 876 302 938 270 909 b 190 762 218 840 200 801 b 193 647 181 722 181 683 b 247 558 202 613 220 584 b 283 530 258 548 269 538 b 231 500 265 520 248 511 b 137 406 194 473 162 441 b 81 290 109 370 91 331 b 83 173 72 250 72 211 b 136 81 93 140 111 108 b 351 1 187 29 263 1 b 604 81 440 1 529 29 b 700 173 643 108 675 140 b 755 290 727 211 745 250 b 754 406 765 331 763 370 b 701 500 744 441 726 473 m 393 875 b 565 927 443 908 504 927 b 713 875 626 927 680 908 b 748 762 745 843 758 804 b 662 648 738 719 708 680 b 488 595 612 615 550 595 b 340 648 427 595 375 615 b 306 762 308 680 297 719 b 393 875 316 804 347 843 m 551 170 b 379 116 501 136 438 116 b 230 170 318 116 265 136 b 197 290 198 204 187 245 b 286 409 208 334 238 377 b 458 465 336 445 397 465 b 606 409 519 465 572 445 b 640 290 637 377 650 334 b 551 170 629 245 598 204 "},"R":{"x_min":15.28125,"x_max":861.484375,"ha":833,"o":"m 255 1043 l 241 984 l 287 956 l 86 84 l 27 58 l 15 0 l 181 0 l 266 368 l 433 368 b 533 268 480 368 511 315 b 544 56 559 215 562 133 l 588 0 l 687 0 l 700 56 l 663 77 b 643 336 686 175 677 265 b 581 413 627 368 606 394 b 695 479 622 429 661 451 b 852 713 777 541 831 625 b 804 948 873 802 856 886 b 594 1043 755 1006 680 1040 l 255 1043 m 297 500 l 395 927 l 555 927 b 737 713 683 927 765 831 b 456 500 711 595 584 500 l 297 500 "},"á":{"x_min":63.4375,"x_max":752.484375,"ha":833,"o":"m 225 920 l 258 873 l 479 1027 l 493 1108 l 459 1155 l 413 1122 l 225 920 m 659 86 l 747 466 b 741 568 755 501 754 537 b 687 640 731 595 713 619 b 488 695 638 677 568 695 b 263 636 409 695 330 673 b 220 605 248 626 234 616 l 279 520 b 306 538 287 526 295 533 b 462 579 351 565 406 579 b 600 543 518 579 568 569 b 630 466 636 515 634 481 l 611 379 l 538 461 l 470 461 b 222 402 383 461 294 440 b 125 331 183 383 150 359 b 68 230 95 301 76 266 b 77 130 59 195 62 161 b 141 59 91 102 113 79 b 365 1 197 22 277 1 l 461 1 l 536 58 l 583 1 l 691 1 l 704 58 l 659 86 m 431 116 l 391 116 b 225 159 325 116 263 131 b 183 230 193 180 177 206 b 258 302 188 255 215 281 b 444 345 311 330 377 345 l 484 345 l 593 302 l 559 158 l 431 116 "},"×":{"x_min":33.328125,"x_max":836.109375,"ha":833,"o":"m 770 695 l 454 430 l 258 695 l 156 615 l 354 347 l 33 80 l 97 0 l 415 263 l 611 0 l 712 80 l 515 347 l 836 615 l 770 695 "},"o":{"x_min":84.9375,"x_max":780.953125,"ha":833,"o":"m 445 694 b 319 654 405 694 362 680 b 213 558 281 630 247 598 b 95 354 150 480 115 433 l 93 340 b 116 136 75 259 88 213 b 177 40 130 95 151 62 b 286 0 208 13 245 0 l 419 0 b 545 40 459 0 504 13 b 651 136 583 62 619 95 b 769 340 715 213 751 259 l 772 354 b 748 558 791 433 776 480 b 687 654 734 598 713 630 b 580 694 658 680 620 694 l 445 694 m 312 115 b 230 194 277 115 247 144 b 208 340 208 254 194 281 l 211 354 b 301 500 225 412 252 440 b 419 577 341 550 384 577 l 554 577 b 636 500 588 577 618 550 b 656 354 656 440 670 412 l 654 340 b 565 194 640 281 613 254 b 445 115 525 144 481 115 l 312 115 "},"5":{"x_min":58.328125,"x_max":930.5625,"ha":833,"o":"m 930 1043 l 313 1043 l 241 984 l 154 601 l 200 543 l 466 543 b 650 330 594 543 676 447 b 368 116 622 212 495 116 l 304 116 l 155 277 l 58 190 l 233 0 l 343 0 b 608 95 434 1 529 34 b 765 330 688 158 744 241 b 716 563 786 418 768 501 b 493 659 665 625 586 659 l 283 659 l 344 927 l 845 927 l 918 987 l 930 1043 "},"õ":{"x_min":84.9375,"x_max":780.953125,"ha":833,"o":"m 288 988 l 390 877 l 481 877 l 613 1025 l 580 1072 l 436 983 l 288 1072 l 125 972 l 125 877 l 190 877 l 288 988 m 445 694 b 319 654 405 694 362 680 b 213 558 281 630 247 598 b 95 354 150 480 115 433 l 93 340 b 116 136 75 259 88 213 b 177 40 130 95 151 62 b 286 0 208 13 245 0 l 419 0 b 545 40 459 0 504 13 b 651 136 583 62 619 95 b 769 340 715 213 751 259 l 772 354 b 748 558 791 433 776 480 b 687 654 734 598 713 630 b 580 694 658 680 620 694 l 445 694 m 654 340 b 565 194 640 281 613 254 b 445 115 525 144 481 115 l 312 115 b 230 194 277 115 247 144 b 208 340 208 254 194 281 l 211 354 b 301 500 225 412 252 440 b 419 577 341 550 384 577 l 554 577 b 636 500 588 577 618 550 b 656 354 656 440 670 412 l 654 340 "},"7":{"x_min":30.5625,"x_max":916.671875,"ha":833,"o":"m 873 1043 l 255 1043 l 243 987 l 286 927 l 788 927 l 777 880 l 30 66 l 111 1 l 884 844 l 916 984 l 873 1043 "},"K":{"x_min":15.28125,"x_max":909.71875,"ha":833,"o":"m 909 955 l 854 1041 l 334 665 l 408 984 l 363 1041 l 255 1041 l 241 984 l 287 956 l 86 84 l 27 58 l 15 0 l 123 0 l 194 58 l 269 384 l 613 0 l 709 88 l 312 520 l 909 955 "},",":{"x_min":304.171875,"x_max":534.71875,"ha":833,"o":"m 304 -12 l 366 -75 l 534 95 l 534 177 l 472 238 l 431 198 l 304 -12 "},"d":{"x_min":85.21875,"x_max":863.890625,"ha":833,"o":"m 656 86 l 863 984 l 762 1043 l 645 1043 l 631 984 l 736 927 l 655 580 l 598 695 l 522 695 b 94 347 330 695 138 538 b 362 0 50 155 170 0 l 438 0 l 548 116 l 534 58 l 580 0 l 688 0 l 701 58 l 656 86 m 419 115 l 388 115 b 209 347 261 115 180 219 b 495 579 240 475 368 579 l 525 579 l 633 486 l 569 208 l 419 115 "},"¨":{"x_min":175,"x_max":658.328125,"ha":833,"o":"m 175 1026 l 175 868 l 341 868 l 341 968 l 281 1026 l 175 1026 m 491 1026 l 491 868 l 658 868 l 658 968 l 598 1026 l 491 1026 "},"Ô":{"x_min":94.734375,"x_max":851.390625,"ha":833,"o":"m 637 1236 l 806 1095 l 851 1143 l 708 1344 l 616 1344 l 381 1143 l 404 1095 l 637 1236 m 526 1043 b 400 1002 486 1043 443 1029 b 294 906 362 979 327 947 b 158 619 230 829 181 726 l 112 423 b 116 136 87 315 88 213 b 177 40 130 95 151 62 b 286 0 208 13 245 0 l 420 0 b 545 40 461 0 504 13 b 651 136 583 62 618 95 b 788 423 715 213 763 315 l 834 619 b 829 906 858 726 856 829 b 768 1002 815 947 794 979 b 661 1043 738 1029 701 1043 l 526 1043 m 673 423 b 565 194 654 337 613 254 b 447 115 525 144 481 115 l 312 115 b 230 194 277 115 248 144 b 227 423 209 254 209 337 l 273 619 b 381 848 293 705 333 788 b 500 926 422 898 465 926 l 634 926 b 716 848 669 926 698 898 b 719 619 737 788 738 705 l 673 423 "},"E":{"x_min":15.28125,"x_max":930.5625,"ha":833,"o":"m 930 1041 l 255 1041 l 241 984 l 287 956 l 86 84 l 27 58 l 15 0 l 690 0 l 702 56 l 659 115 l 204 101 l 302 525 l 615 525 l 687 583 l 700 640 l 329 640 l 398 940 l 847 926 l 916 986 l 930 1041 "},"Y":{"x_min":181.9375,"x_max":931.953125,"ha":833,"o":"m 823 1041 l 751 984 l 680 673 b 486 575 613 672 538 625 b 338 673 455 625 404 672 l 409 984 l 365 1041 l 256 1041 l 243 984 l 288 956 l 227 694 l 277 597 l 293 597 b 319 593 302 597 311 595 b 370 561 338 587 356 576 b 400 456 397 534 405 497 l 322 115 l 194 56 l 181 0 l 295 0 l 359 29 l 412 0 l 526 0 l 538 56 l 438 115 l 513 441 b 583 551 525 488 547 520 b 705 597 619 581 663 595 l 800 694 l 861 956 l 918 984 l 931 1041 l 823 1041 "},"\"":{"x_min":337.5,"x_max":795.828125,"ha":833,"o":"m 406 1072 l 337 775 l 416 775 l 490 833 l 545 1072 l 406 1072 m 656 1072 l 587 775 l 666 775 l 740 833 l 795 1072 l 656 1072 "},"‹":{"x_min":306.9375,"x_max":613.890625,"ha":833,"o":"m 613 583 l 573 616 l 327 429 l 316 383 l 306 337 l 462 147 l 518 180 l 425 383 l 613 583 "},"˙":{"x_min":333.328125,"x_max":500,"ha":833,"o":"m 333 1026 l 333 868 l 500 868 l 500 968 l 440 1026 l 333 1026 "},"ê":{"x_min":85.390625,"x_max":819.453125,"ha":833,"o":"m 352 1000 l 554 859 l 587 906 l 398 1108 l 306 1108 l 118 906 l 151 859 l 352 1000 m 819 569 l 758 694 l 522 694 b 252 593 430 694 334 658 b 94 347 172 527 116 440 b 138 101 73 254 88 166 b 362 0 191 36 270 0 l 598 0 l 718 126 l 737 212 l 579 115 l 388 115 b 205 288 281 115 206 188 l 755 288 l 819 569 m 681 405 l 231 405 b 495 579 280 505 388 579 l 686 579 l 716 552 l 681 405 "},"Ï":{"x_min":15.28125,"x_max":930.5625,"ha":833,"o":"m 412 1304 l 376 1145 l 543 1145 l 566 1245 l 519 1304 l 412 1304 m 729 1304 l 693 1145 l 859 1145 l 883 1245 l 836 1304 l 729 1304 m 930 1041 l 255 1041 l 241 984 l 337 926 l 518 926 l 330 115 l 150 115 l 27 58 l 15 0 l 690 0 l 702 56 l 659 115 l 445 115 l 633 926 l 847 926 l 916 986 l 930 1041 "},"„":{"x_min":147.21875,"x_max":602.78125,"ha":833,"o":"m 213 238 l 147 -58 l 226 -58 l 300 0 l 352 238 l 213 238 m 463 238 l 397 -58 l 476 -58 l 550 0 l 602 238 l 463 238 "},"Â":{"x_min":16.671875,"x_max":851.390625,"ha":833,"o":"m 637 1236 l 806 1095 l 851 1143 l 708 1344 l 616 1344 l 381 1143 l 404 1095 l 637 1236 m 87 86 l 29 58 l 16 0 l 125 0 l 197 58 l 290 463 l 629 463 l 536 58 l 583 0 l 691 0 l 704 58 l 659 86 l 800 695 b 754 943 822 788 805 876 b 594 1041 727 977 687 1025 b 387 943 493 1025 430 977 b 227 695 305 876 250 788 l 87 86 m 656 579 l 318 579 l 344 695 b 566 922 369 802 462 895 b 683 695 658 895 708 802 l 656 579 "},"´":{"x_min":287.5,"x_max":555.5625,"ha":833,"o":"m 287 920 l 320 873 l 541 1027 l 555 1108 l 522 1155 l 476 1122 l 287 920 "},"Í":{"x_min":15.28125,"x_max":930.5625,"ha":833,"o":"m 484 1129 l 506 1081 l 763 1236 l 795 1316 l 773 1363 l 720 1330 l 484 1129 m 930 1041 l 255 1041 l 241 984 l 337 926 l 518 926 l 330 115 l 150 115 l 27 58 l 15 0 l 690 0 l 702 56 l 659 115 l 445 115 l 633 926 l 847 926 l 916 986 l 930 1041 "},"ì":{"x_min":15.28125,"x_max":704.171875,"ha":833,"o":"m 483 920 l 450 873 l 229 1027 l 215 1108 l 248 1155 l 294 1122 l 483 920 m 659 116 l 544 88 l 497 115 l 616 634 l 572 694 l 244 694 l 227 622 l 491 595 l 380 115 l 309 83 l 100 116 l 27 56 l 15 1 l 354 1 l 418 29 l 470 1 l 691 1 l 704 56 l 659 116 "},"±":{"x_min":37.5,"x_max":827.78125,"ha":833,"o":"m 770 625 l 550 604 l 619 902 l 502 902 l 430 593 l 154 568 l 140 509 l 411 509 l 341 208 l 458 208 l 527 509 l 744 509 l 815 568 l 827 625 l 770 625 m 50 58 l 37 0 l 613 0 l 683 58 l 697 115 l 640 115 l 50 58 "},"Ú":{"x_min":146.125,"x_max":930.5625,"ha":833,"o":"m 484 1129 l 506 1081 l 763 1236 l 795 1316 l 773 1363 l 720 1330 l 484 1129 m 930 1041 l 820 1041 l 750 984 l 622 425 b 513 194 602 337 562 254 b 395 116 473 145 430 116 l 363 116 b 281 194 329 116 300 145 b 279 425 261 254 259 337 l 408 984 l 365 1041 l 255 1041 l 241 984 l 287 958 l 163 425 b 168 136 138 316 140 213 b 229 40 181 95 202 63 b 337 1 259 15 297 1 l 369 1 b 494 40 409 1 452 15 b 600 136 531 63 566 95 b 737 425 663 213 712 316 l 859 958 l 916 984 l 930 1041 "},"|":{"x_min":356.9375,"x_max":473.609375,"ha":833,"o":"m 356 -83 l 356 1111 l 473 1111 l 473 -83 l 356 -83 "},"§":{"x_min":16.671875,"x_max":886.109375,"ha":833,"o":"m 772 836 l 801 720 l 858 720 l 886 836 l 855 951 l 480 951 b 180 708 347 951 212 843 l 172 668 l 393 577 b 94 334 261 577 126 469 l 86 294 l 590 88 b 445 -13 562 37 502 -16 l 131 0 l 100 113 l 43 113 l 16 -1 l 47 -116 l 422 -116 b 722 126 555 -116 690 -6 l 730 166 l 508 256 b 808 500 641 256 777 366 l 816 540 l 312 745 b 456 850 338 798 400 852 l 772 836 m 225 373 b 370 476 254 426 313 479 l 675 462 b 531 359 648 411 588 356 l 225 373 "},"Ý":{"x_min":181.9375,"x_max":931.953125,"ha":833,"o":"m 763 1236 l 795 1316 l 773 1363 l 720 1330 l 484 1129 l 506 1081 l 763 1236 m 823 1041 l 751 984 l 680 673 b 486 575 613 672 538 625 b 338 673 455 625 404 672 l 409 984 l 365 1041 l 256 1041 l 243 984 l 288 956 l 227 694 l 277 597 l 293 597 b 319 593 302 597 311 595 b 370 561 338 587 356 576 b 400 456 397 534 405 497 l 322 115 l 194 56 l 181 0 l 295 0 l 359 29 l 412 0 l 526 0 l 538 56 l 438 115 l 513 441 b 583 551 525 483 547 520 b 705 597 619 581 663 595 l 800 694 l 861 956 l 918 984 l 931 1041 l 823 1041 "},"b":{"x_min":15.28125,"x_max":777.71875,"ha":833,"o":"m 425 694 l 408 677 l 315 580 l 408 984 l 363 1041 l 255 1041 l 241 984 l 287 956 l 86 84 l 27 58 l 15 0 l 181 0 l 208 116 l 265 0 l 341 0 b 609 101 434 0 530 36 b 768 347 691 168 747 254 b 723 593 790 440 773 527 b 513 694 676 655 602 691 l 425 694 m 337 115 l 229 206 l 293 486 l 444 579 l 475 579 b 652 347 602 579 683 475 b 368 115 623 219 495 115 l 337 115 "},"q":{"x_min":85.390625,"x_max":847.21875,"ha":833,"o":"m 833 636 l 847 694 l 740 694 l 666 636 l 654 577 l 598 694 l 522 694 b 252 593 429 694 334 658 b 94 347 172 526 116 440 b 138 101 73 254 88 166 b 362 0 191 36 269 0 l 437 0 l 545 113 l 452 -290 l 500 -347 l 606 -347 l 619 -290 l 576 -262 l 777 609 l 833 636 m 418 115 l 388 115 b 209 347 261 115 180 219 b 495 579 240 475 368 579 l 525 579 l 633 487 l 568 208 l 418 115 "},"Ö":{"x_min":94.734375,"x_max":883.328125,"ha":833,"o":"m 412 1304 l 376 1145 l 543 1145 l 566 1245 l 519 1304 l 412 1304 m 729 1304 l 693 1145 l 859 1145 l 883 1245 l 836 1304 l 729 1304 m 526 1043 b 400 1002 486 1043 443 1029 b 294 906 362 979 327 947 b 158 619 230 829 181 726 l 112 423 b 116 136 87 315 88 213 b 177 40 130 95 151 62 b 286 0 208 13 245 0 l 420 0 b 545 40 461 0 504 13 b 651 136 583 62 618 95 b 788 423 715 213 763 315 l 834 619 b 829 906 858 726 856 829 b 768 1002 815 947 794 979 b 661 1043 738 1029 701 1043 l 526 1043 m 312 115 b 230 194 277 115 248 144 b 227 423 209 254 209 337 l 273 619 b 381 848 293 705 333 788 b 500 926 422 898 465 926 l 634 926 b 716 848 669 926 698 898 b 719 619 737 788 738 705 l 673 423 b 565 194 654 337 613 254 b 447 115 525 144 481 115 l 312 115 "},"z":{"x_min":41.671875,"x_max":823.609375,"ha":833,"o":"m 793 694 l 231 694 l 148 579 l 122 463 l 179 463 l 266 583 l 731 583 l 58 186 l 41 115 l 72 0 l 633 0 l 716 115 l 743 230 l 686 230 l 598 112 l 131 112 l 808 509 l 823 576 l 823 579 l 793 694 "},"™":{"x_min":62.5,"x_max":770.828125,"ha":833,"o":"m 93 1055 l 62 993 l 62 923 l 109 923 l 134 976 l 188 976 l 188 631 l 137 605 l 137 558 l 205 558 l 229 569 l 252 558 l 320 558 l 320 605 l 269 631 l 269 976 l 320 976 l 345 923 l 394 923 l 394 993 l 362 1055 l 93 1055 m 629 1055 l 622 1027 l 611 1038 b 563 1055 597 1050 580 1055 l 520 1055 l 516 1045 l 506 1055 l 438 1055 l 438 1008 l 461 995 l 461 618 l 438 606 l 438 558 l 506 558 l 541 593 l 541 944 l 565 972 b 580 908 568 965 580 944 l 561 756 l 593 720 l 643 720 l 665 766 l 641 779 l 661 905 b 656 951 661 920 659 937 l 669 966 b 679 933 672 959 676 948 b 691 806 686 897 691 852 b 679 681 691 761 686 716 b 659 631 672 651 665 638 l 659 559 b 729 591 693 551 719 576 b 752 650 738 605 747 626 b 770 806 765 691 770 747 b 752 966 770 865 765 923 b 729 1022 747 987 738 1008 b 673 1055 711 1050 687 1055 l 629 1055 "},"ã":{"x_min":63.4375,"x_max":752.484375,"ha":833,"o":"m 288 988 l 390 877 l 481 877 l 613 1025 l 580 1072 l 436 983 l 288 1072 l 125 972 l 125 877 l 190 877 l 288 988 m 279 520 b 306 538 287 526 295 533 b 462 579 351 565 406 579 b 600 543 518 579 568 569 b 630 466 636 515 634 481 l 611 379 l 538 461 l 470 461 b 222 402 383 461 294 440 b 125 331 183 383 150 359 b 68 230 95 301 76 266 b 77 130 59 195 62 161 b 141 59 91 102 113 79 b 365 1 197 22 277 1 l 461 1 l 536 58 l 583 1 l 691 1 l 704 58 l 659 86 l 747 466 b 741 568 755 501 754 537 b 687 640 731 595 713 619 b 488 695 638 677 568 695 b 263 636 409 695 330 673 b 220 605 248 626 234 616 l 279 520 m 559 158 l 431 116 l 391 116 b 225 159 325 116 263 131 b 183 230 193 180 177 206 b 258 302 188 255 215 281 b 444 345 311 330 377 345 l 484 345 l 593 302 l 559 158 "},"®":{"x_min":77.78125,"x_max":754.171875,"ha":833,"o":"m 348 694 b 231 654 308 694 268 680 b 148 558 200 630 172 598 b 77 354 102 480 77 433 l 77 340 b 148 136 77 259 102 213 b 231 40 172 95 200 62 b 348 0 268 13 308 0 l 483 0 b 600 40 523 0 563 13 b 683 136 631 62 659 95 b 754 340 729 213 754 259 l 754 354 b 683 558 754 433 729 480 b 600 654 659 598 631 630 b 483 694 563 680 523 694 l 348 694 m 659 340 b 601 183 659 275 636 241 b 483 94 570 130 525 94 l 348 94 b 230 183 306 94 261 130 b 172 340 195 241 172 275 l 172 354 b 230 511 172 419 195 451 b 348 598 262 563 306 598 l 483 598 b 601 511 525 598 569 563 b 659 354 636 451 659 419 l 659 340 m 277 563 l 277 529 l 298 518 l 298 177 l 277 166 l 277 131 l 358 131 l 358 280 l 418 280 b 462 243 431 280 448 262 b 483 159 476 222 483 190 l 511 131 l 559 131 l 559 166 l 544 175 b 511 277 541 212 530 248 b 484 304 502 287 494 295 b 516 326 497 309 506 316 b 561 425 545 351 561 387 b 516 525 561 462 545 498 b 419 563 490 548 456 562 l 277 563 m 358 345 l 358 504 l 415 504 b 500 425 463 504 500 469 b 415 345 500 380 463 345 l 358 345 "},"É":{"x_min":15.28125,"x_max":930.5625,"ha":833,"o":"m 484 1129 l 506 1081 l 763 1236 l 795 1316 l 773 1363 l 720 1330 l 484 1129 m 930 1041 l 255 1041 l 241 984 l 287 956 l 86 84 l 27 58 l 15 0 l 690 0 l 702 56 l 659 115 l 204 101 l 302 525 l 615 525 l 687 583 l 700 640 l 329 640 l 398 940 l 847 926 l 916 986 l 930 1041 "},"~":{"x_min":193.0625,"x_max":716.671875,"ha":833,"o":"m 694 559 l 529 470 l 402 559 l 215 459 l 193 365 l 258 365 l 383 476 l 458 365 l 550 365 l 716 512 l 694 559 "},"¡":{"x_min":204.171875,"x_max":597.21875,"ha":833,"o":"m 430 694 l 394 536 l 501 536 l 579 616 l 597 694 l 430 694 m 250 -347 l 204 -288 l 361 394 l 468 394 l 370 -288 l 356 -347 l 250 -347 "},"[":{"x_min":188.890625,"x_max":813.890625,"ha":833,"o":"m 429 1041 l 498 1100 l 768 1100 l 813 1041 l 800 984 l 530 984 l 316 56 l 586 56 l 573 0 l 501 -58 l 231 -58 l 188 0 l 429 1041 "},"L":{"x_min":15.28125,"x_max":702.78125,"ha":833,"o":"m 204 98 l 408 984 l 363 1041 l 255 1041 l 241 984 l 287 956 l 86 84 l 27 58 l 15 0 l 690 0 l 702 56 l 659 115 l 204 98 "}," ":{"x_min":0,"x_max":0,"ha":833},"%":{"x_min":55.5625,"x_max":777.78125,"ha":833,"o":"m 77 29 l 654 1072 l 755 1015 l 179 -26 l 77 29 m 222 693 b 388 859 313 693 388 768 b 222 1026 388 951 313 1026 b 55 859 130 1026 55 951 b 222 693 55 768 130 693 m 222 790 b 152 859 184 790 152 820 b 222 929 152 898 184 929 b 291 859 261 929 291 898 b 222 790 291 820 261 790 m 611 13 b 777 180 702 13 777 88 b 611 347 777 272 702 347 b 444 180 519 347 444 272 b 611 13 444 88 519 13 m 611 111 b 541 180 573 111 541 141 b 611 250 541 219 573 250 b 680 180 650 250 680 219 b 611 111 680 141 650 111 "},"P":{"x_min":15.28125,"x_max":862.015625,"ha":833,"o":"m 513 1043 l 408 984 l 363 1041 l 255 1041 l 241 984 l 287 956 l 86 84 l 27 58 l 15 0 l 181 0 l 270 384 l 430 384 b 697 479 522 384 616 418 b 854 713 777 541 833 625 b 804 948 873 802 856 886 b 594 1043 755 1006 681 1040 l 513 1043 m 297 500 l 390 906 l 515 927 l 555 927 b 737 713 683 927 765 831 b 456 500 711 595 584 500 l 297 500 "},"À":{"x_min":15.28125,"x_max":808.21875,"ha":833,"o":"m 743 1129 l 601 1330 l 562 1363 l 518 1316 l 513 1236 l 698 1081 l 743 1129 m 86 86 l 27 58 l 15 0 l 123 0 l 195 58 l 288 463 l 627 463 l 534 58 l 581 0 l 690 0 l 702 58 l 658 86 l 798 695 b 752 943 820 788 804 876 b 593 1041 726 977 686 1025 b 386 943 491 1025 429 977 b 226 695 304 876 248 788 l 86 86 m 655 579 l 316 579 l 343 695 b 565 922 368 802 461 895 b 681 695 656 895 706 802 l 655 579 "},"_":{"x_min":86.109375,"x_max":747.21875,"ha":833,"o":"m 86 -166 l 86 -225 l 690 -225 l 747 -166 l 747 -109 l 690 -109 l 86 -166 "},"ñ":{"x_min":15.28125,"x_max":739.140625,"ha":833,"o":"m 288 988 l 390 877 l 481 877 l 613 1025 l 580 1072 l 436 983 l 288 1072 l 125 972 l 125 877 l 190 877 l 288 988 m 425 694 l 315 580 l 329 638 l 283 695 l 175 695 l 162 638 l 206 611 l 86 84 l 27 58 l 15 0 l 123 0 l 194 58 l 293 486 l 444 579 l 475 579 b 615 395 576 579 638 497 l 537 58 l 581 0 l 690 0 l 702 58 l 659 84 l 730 395 b 691 606 750 476 736 551 b 513 694 651 661 588 691 l 425 694 "},"+":{"x_min":138.890625,"x_max":826.390625,"ha":833,"o":"m 769 625 l 548 604 l 618 902 l 501 902 l 429 593 l 152 568 l 138 509 l 409 509 l 340 208 l 456 208 l 526 509 l 743 509 l 813 568 l 826 625 l 769 625 "},"‚":{"x_min":268.0625,"x_max":486.109375,"ha":833,"o":"m 347 275 l 268 -69 l 334 -69 l 423 0 l 486 275 l 347 275 "},"Ë":{"x_min":15.28125,"x_max":930.5625,"ha":833,"o":"m 409 1290 l 373 1131 l 540 1131 l 562 1231 l 516 1290 l 409 1290 m 726 1290 l 690 1131 l 856 1131 l 879 1231 l 833 1290 l 726 1290 m 930 1041 l 255 1041 l 241 984 l 287 956 l 86 84 l 27 58 l 15 0 l 690 0 l 702 56 l 659 115 l 204 101 l 302 525 l 615 525 l 687 583 l 700 640 l 329 640 l 398 940 l 847 926 l 916 986 l 930 1041 "},"'":{"x_min":430.5625,"x_max":650,"ha":833,"o":"m 511 1041 l 430 697 l 497 697 l 586 766 l 650 1041 l 511 1041 "},"˛":{"x_min":270.828125,"x_max":556.9375,"ha":833,"o":"m 393 -154 l 455 0 l 398 0 l 270 -173 l 297 -211 l 322 -248 l 538 -280 l 556 -225 l 393 -154 "},"T":{"x_min":181.9375,"x_max":904.171875,"ha":833,"o":"m 872 1041 l 311 1041 l 229 926 l 201 811 l 256 811 l 340 926 l 508 926 l 322 115 l 194 56 l 181 0 l 526 0 l 538 56 l 438 115 l 625 926 l 790 926 l 818 811 l 876 811 l 904 926 l 872 1041 "},"j":{"x_min":5.671875,"x_max":863.890625,"ha":833,"o":"m 793 926 l 851 926 l 863 983 l 819 1041 l 711 1041 l 697 983 l 793 926 m 290 694 l 273 623 l 655 577 l 504 -75 l 338 -231 l 309 -231 b 130 1 181 -231 101 -126 l 15 1 b 61 -244 -6 -91 9 -179 b 283 -347 111 -311 190 -347 l 359 -347 l 619 -75 l 777 609 l 834 636 l 848 694 l 290 694 "},"1":{"x_min":15.28125,"x_max":702.78125,"ha":833,"o":"m 645 984 l 545 1041 l 245 998 l 229 926 l 516 926 l 329 115 l 150 115 l 27 58 l 15 0 l 690 0 l 702 56 l 658 115 l 445 115 l 633 926 l 645 984 "},"›":{"x_min":269.4375,"x_max":576.390625,"ha":833,"o":"m 419 612 l 365 579 l 456 377 l 269 176 l 308 143 l 555 330 l 565 376 l 576 422 l 419 612 "},"ä":{"x_min":63.4375,"x_max":752.484375,"ha":833,"o":"m 112 1026 l 112 868 l 279 868 l 279 968 l 219 1026 l 112 1026 m 429 1026 l 429 868 l 595 868 l 595 968 l 536 1026 l 429 1026 m 659 86 l 747 466 b 741 568 755 501 754 537 b 687 640 731 595 713 619 b 488 695 638 677 568 695 b 263 636 409 695 330 673 b 220 605 248 626 234 616 l 279 520 b 306 538 287 526 295 533 b 462 579 351 565 406 579 b 600 543 518 579 568 569 b 630 466 636 515 634 481 l 611 379 l 538 461 l 470 461 b 222 402 383 461 294 440 b 125 331 183 383 150 359 b 68 230 95 301 76 266 b 77 130 59 195 62 161 b 141 59 91 102 113 79 b 365 1 197 22 277 1 l 461 1 l 536 58 l 583 1 l 691 1 l 704 58 l 659 86 m 431 116 l 391 116 b 225 159 325 116 263 131 b 183 230 193 180 177 206 b 258 302 188 255 215 281 b 444 345 311 330 377 345 l 484 345 l 593 302 l 559 158 l 431 116 "},"<":{"x_min":163.890625,"x_max":825,"ha":833,"o":"m 825 741 l 806 791 l 200 555 l 172 513 l 163 477 l 172 434 l 670 202 l 711 250 l 315 495 l 825 741 "},"£":{"x_min":50,"x_max":822.21875,"ha":833,"o":"m 822 1041 b 666 995 772 1041 718 1026 b 530 879 618 968 573 927 b 376 600 465 801 411 704 l 240 581 l 227 523 l 354 523 l 354 520 l 325 395 b 222 190 302 318 266 244 b 119 115 187 148 151 122 l 65 120 l 50 58 l 94 0 l 670 0 l 684 63 l 281 101 b 308 131 290 111 300 120 b 447 420 372 209 422 312 l 469 520 l 469 523 l 645 523 l 715 581 l 729 638 l 672 638 l 498 615 b 615 818 526 691 566 761 b 795 926 675 887 737 926 l 822 1041 "},"t":{"x_min":134.71875,"x_max":840.28125,"ha":833,"o":"m 781 637 l 493 616 l 543 834 l 513 951 l 455 951 l 376 608 l 151 593 l 134 522 l 355 522 l 291 244 l 434 0 l 509 0 b 702 50 575 0 641 18 l 737 202 b 536 115 681 150 609 115 l 511 115 l 406 244 l 470 522 l 754 522 l 826 580 l 840 637 l 781 637 "},"ù":{"x_min":128.390625,"x_max":852.78125,"ha":833,"o":"m 483 920 l 450 873 l 229 1027 l 215 1108 l 248 1155 l 294 1122 l 483 920 m 840 637 l 852 695 l 744 695 l 673 637 l 573 209 l 423 116 l 393 116 b 251 298 291 116 229 198 l 330 637 l 286 694 l 177 694 l 165 637 l 208 611 l 136 298 b 175 87 118 219 131 144 b 354 0 215 34 279 4 l 443 0 l 552 115 l 538 58 l 584 0 l 693 0 l 705 58 l 661 86 l 781 609 l 840 637 "},"W":{"x_min":111.109375,"x_max":931.953125,"ha":833,"o":"m 750 984 l 575 222 b 570 220 573 220 570 220 b 544 204 561 215 551 209 b 495 161 526 191 511 176 b 472 201 490 176 481 188 l 463 209 l 459 212 l 556 636 l 512 694 l 455 694 l 345 218 l 344 212 b 283 161 322 198 302 180 b 259 201 277 176 269 188 b 244 216 255 206 250 212 b 234 222 243 216 234 222 l 409 984 l 365 1041 l 256 1041 l 243 984 l 287 956 l 111 197 b 190 0 198 162 211 93 l 305 0 l 312 25 b 345 104 319 51 329 77 b 369 137 352 115 359 127 b 388 155 375 144 383 152 b 395 148 390 155 394 150 l 404 130 b 411 84 408 116 409 101 b 408 36 411 69 411 52 l 404 15 l 402 5 l 402 0 l 518 0 b 684 197 538 93 583 162 l 861 958 l 918 984 l 931 1041 l 822 1041 l 750 984 "},"ï":{"x_min":15.28125,"x_max":704.171875,"ha":833,"o":"m 112 1026 l 112 868 l 279 868 l 279 968 l 219 1026 l 112 1026 m 429 1026 l 429 868 l 595 868 l 595 968 l 536 1026 l 429 1026 m 659 116 l 544 88 l 497 115 l 616 634 l 572 694 l 244 694 l 227 622 l 491 595 l 380 115 l 309 83 l 100 116 l 27 56 l 15 1 l 354 1 l 418 29 l 470 1 l 691 1 l 704 56 l 659 116 "},">":{"x_min":111.109375,"x_max":770.828125,"ha":833,"o":"m 762 558 l 265 791 l 223 744 l 619 497 l 111 252 l 129 202 l 734 437 l 762 479 l 770 515 l 762 558 "},"v":{"x_min":102.78125,"x_max":851.390625,"ha":833,"o":"m 672 637 l 577 231 b 384 133 509 218 437 183 b 236 231 354 183 300 218 l 330 637 l 284 694 l 176 694 l 163 637 l 208 609 l 102 155 b 295 0 213 155 322 116 l 412 0 b 675 155 437 111 563 155 l 780 609 l 838 637 l 851 694 l 743 694 l 672 637 "},"û":{"x_min":118.0625,"x_max":852.78125,"ha":833,"o":"m 352 1000 l 554 859 l 587 906 l 398 1108 l 306 1108 l 118 906 l 151 859 l 352 1000 m 744 695 l 673 637 l 573 209 l 423 116 l 393 116 b 251 298 291 116 229 198 l 330 637 l 286 694 l 177 694 l 165 637 l 208 611 l 136 298 b 175 87 118 219 131 144 b 354 0 215 34 279 4 l 443 0 l 552 115 l 538 58 l 584 0 l 693 0 l 705 58 l 661 86 l 781 609 l 840 637 l 852 695 l 744 695 "},"Ò":{"x_min":94.734375,"x_max":851.296875,"ha":833,"o":"m 743 1129 l 698 1081 l 513 1236 l 518 1316 l 562 1363 l 601 1330 l 743 1129 m 526 1043 b 400 1002 486 1043 443 1029 b 294 906 362 979 327 947 b 158 619 230 829 181 726 l 112 423 b 116 136 87 315 88 213 b 177 40 130 95 151 62 b 286 0 208 13 245 0 l 420 0 b 545 40 461 0 504 13 b 651 136 583 62 618 95 b 788 423 715 213 763 315 l 834 619 b 829 906 858 726 856 829 b 768 1002 815 947 794 979 b 661 1043 738 1029 701 1043 l 526 1043 m 312 115 b 230 194 277 115 248 144 b 227 423 209 254 209 337 l 273 619 b 381 848 293 705 333 788 b 500 926 422 898 465 926 l 634 926 b 716 848 669 926 698 898 b 719 619 737 788 738 705 l 673 423 b 565 194 654 337 613 254 b 447 115 525 144 481 115 l 312 115 "},"&":{"x_min":83.640625,"x_max":819.265625,"ha":833,"o":"m 801 470 l 684 470 l 631 243 l 511 525 b 812 783 648 537 780 648 b 605 1043 845 926 752 1043 b 383 966 497 1043 425 1001 b 273 783 329 920 290 856 l 269 766 l 340 602 b 248 548 306 587 276 570 b 148 447 209 519 175 484 b 91 320 120 406 101 363 b 90 193 81 276 80 233 b 143 91 98 155 118 120 b 365 0 194 31 273 0 l 475 0 l 568 68 l 597 1 l 706 65 l 675 144 l 736 188 l 801 470 m 394 800 b 579 927 412 861 461 927 b 697 783 662 927 715 862 b 512 640 679 704 595 640 b 463 637 495 640 480 638 l 394 800 m 391 115 b 208 320 263 115 181 206 b 380 504 226 401 295 470 l 526 165 l 458 115 l 391 115 "},"˝":{"x_min":176.390625,"x_max":672.21875,"ha":833,"o":"m 176 920 l 209 873 l 430 1027 l 444 1108 l 411 1155 l 365 1122 l 176 920 m 404 920 l 437 873 l 658 1027 l 672 1108 l 638 1155 l 593 1122 l 404 920 "},"I":{"x_min":15.28125,"x_max":930.5625,"ha":833,"o":"m 930 1041 l 255 1041 l 241 984 l 336 926 l 516 926 l 329 115 l 150 115 l 27 58 l 15 0 l 690 0 l 702 56 l 658 115 l 445 115 l 633 926 l 845 926 l 918 986 l 930 1041 "},"G":{"x_min":114.4375,"x_max":886.109375,"ha":833,"o":"m 804 500 l 759 558 l 405 558 l 393 502 l 437 443 l 680 465 l 629 241 l 455 115 l 388 115 b 258 225 331 115 286 154 b 251 522 227 302 225 408 b 395 819 276 634 327 740 b 576 927 455 888 519 927 l 643 927 l 786 770 l 886 855 l 712 1043 l 602 1043 b 447 997 552 1043 500 1027 b 311 880 400 969 354 929 b 134 522 229 783 166 656 b 145 162 104 387 108 259 b 227 45 165 113 193 75 b 362 0 266 15 311 0 l 472 0 l 731 188 l 804 500 "},"`":{"x_min":277.78125,"x_max":545.828125,"ha":833,"o":"m 545 920 l 512 873 l 291 1027 l 277 1108 l 311 1155 l 356 1122 l 545 920 "},"·":{"x_min":330.5625,"x_max":554.171875,"ha":833,"o":"m 373 506 l 330 320 l 525 320 l 554 448 l 508 506 l 373 506 "},"r":{"x_min":15.28125,"x_max":802.578125,"ha":833,"o":"m 481 693 l 379 584 l 391 637 l 290 694 l 175 694 l 162 637 l 262 580 l 154 113 l 27 56 l 15 0 l 129 0 l 193 29 l 244 0 l 359 0 l 372 56 l 269 113 l 356 487 l 500 576 l 581 576 b 679 450 651 576 695 519 l 795 450 b 609 693 827 583 743 693 l 481 693 "},"¿":{"x_min":3.796875,"x_max":688.890625,"ha":833,"o":"m 430 694 l 394 536 l 501 536 l 579 616 l 597 694 l 430 694 m 391 -347 l 652 -158 l 688 -4 l 373 -231 l 309 -231 b 127 -18 181 -231 100 -136 b 344 187 150 79 241 162 l 409 187 l 481 245 l 515 384 l 400 384 l 381 306 b 169 216 306 297 233 265 b 12 -18 87 154 31 70 b 61 -252 -8 -106 8 -190 b 281 -347 111 -313 190 -347 l 391 -347 "},"ý":{"x_min":45.0625,"x_max":850,"ha":833,"o":"m 225 920 l 258 873 l 479 1027 l 493 1108 l 459 1155 l 413 1122 l 225 920 m 741 694 l 669 636 l 570 208 l 420 115 l 390 115 b 248 298 288 115 225 197 l 326 636 l 283 694 l 175 694 l 161 636 l 205 609 l 133 298 b 172 87 115 218 127 143 b 351 0 212 33 276 2 l 440 0 l 548 113 l 490 -138 l 340 -231 l 309 -231 b 168 -48 208 -231 145 -150 l 52 -48 b 91 -259 34 -129 48 -204 b 270 -347 131 -313 195 -344 l 359 -347 l 376 -330 l 605 -138 l 779 609 l 836 636 l 850 694 l 741 694 "},"x":{"x_min":33.328125,"x_max":836.109375,"ha":833,"o":"m 770 695 l 454 430 l 258 695 l 156 615 l 354 347 l 33 80 l 97 0 l 415 263 l 611 0 l 712 80 l 515 347 l 836 615 l 770 695 "},"è":{"x_min":85.390625,"x_max":819.453125,"ha":833,"o":"m 483 920 l 450 873 l 229 1027 l 215 1108 l 248 1155 l 294 1122 l 483 920 m 819 569 l 758 694 l 522 694 b 252 593 430 694 334 658 b 94 347 172 527 116 440 b 138 101 73 254 88 166 b 362 0 191 36 270 0 l 598 0 l 718 126 l 737 212 l 579 115 l 388 115 b 205 288 281 115 206 188 l 755 288 l 819 569 m 231 405 b 495 579 280 505 388 579 l 686 579 l 716 552 l 681 405 l 231 405 "},"∞":{"x_min":74.96875,"x_max":789.484375,"ha":833,"o":"m 87 340 b 97 136 69 259 69 213 b 144 40 111 95 118 62 b 252 0 175 13 212 0 b 362 41 287 0 325 19 b 452 0 388 19 418 0 b 577 40 493 0 536 13 b 669 136 615 62 636 95 b 773 340 733 213 755 259 l 776 354 b 766 558 795 433 794 480 b 719 654 752 598 745 630 b 612 694 690 680 652 694 b 502 652 577 694 538 675 b 412 694 476 675 447 694 b 286 654 372 694 329 680 b 194 558 248 630 227 598 b 90 354 130 480 109 433 l 87 340 m 658 340 b 583 194 644 281 631 254 b 479 115 543 144 513 115 b 411 194 444 115 429 144 b 402 219 408 202 405 211 l 383 194 b 279 115 343 144 313 115 b 211 194 244 115 229 144 b 202 340 190 254 188 281 l 205 354 b 281 500 219 412 233 440 b 386 577 322 550 351 577 b 454 500 420 577 436 550 b 462 475 456 491 459 483 l 481 500 b 586 577 522 550 551 577 b 654 500 620 577 636 550 b 661 354 675 440 675 412 l 658 340 m 461 354 b 462 475 472 404 475 430 b 405 354 429 430 416 404 l 402 340 b 402 219 391 290 390 263 b 458 340 436 263 447 290 l 461 354 "},"÷":{"x_min":106.9375,"x_max":766.671875,"ha":833,"o":"m 569 636 l 523 694 l 444 694 l 408 536 l 547 536 l 569 636 m 709 416 l 119 359 l 106 301 l 683 301 l 752 359 l 766 416 l 709 416 m 320 158 l 284 0 l 423 0 l 445 100 l 400 158 l 320 158 "},"h":{"x_min":15.28125,"x_max":739.140625,"ha":833,"o":"m 659 84 l 730 395 b 691 606 750 476 736 551 b 513 694 651 661 588 691 l 425 694 l 315 580 l 408 984 l 363 1041 l 255 1041 l 241 984 l 287 956 l 86 84 l 27 58 l 15 0 l 123 0 l 194 58 l 293 486 l 444 579 l 475 579 b 615 395 576 579 638 497 l 537 58 l 581 0 l 690 0 l 702 58 l 659 84 "},".":{"x_min":256.9375,"x_max":480.5625,"ha":833,"o":"m 300 186 l 256 0 l 451 0 l 480 127 l 420 186 l 300 186 "},";":{"x_min":237.5,"x_max":594.4375,"ha":833,"o":"m 441 694 l 405 536 l 572 536 l 594 636 l 548 694 l 441 694 m 237 -12 l 286 -75 l 493 95 l 511 177 l 463 238 l 415 198 l 237 -12 "},"f":{"x_min":113.890625,"x_max":918.0625,"ha":833,"o":"m 666 1043 l 651 1026 l 404 769 l 368 611 l 151 594 l 134 522 l 347 522 l 254 115 l 126 56 l 113 0 l 227 0 l 291 29 l 344 0 l 458 0 l 470 56 l 370 115 l 463 522 l 697 522 l 768 581 l 781 638 l 725 638 l 486 620 l 520 769 l 690 926 l 716 926 b 881 827 794 926 854 887 l 918 986 b 743 1043 872 1023 811 1043 l 666 1043 "},"“":{"x_min":337.5,"x_max":794.453125,"ha":833,"o":"m 476 765 l 544 1062 l 465 1062 l 391 1004 l 337 765 l 476 765 m 726 765 l 794 1062 l 715 1062 l 641 1004 l 587 765 l 726 765 "},"A":{"x_min":15.28125,"x_max":808.21875,"ha":833,"o":"m 86 86 l 27 58 l 15 0 l 123 0 l 195 58 l 288 463 l 627 463 l 534 58 l 581 0 l 690 0 l 702 58 l 658 86 l 798 695 b 752 943 820 788 804 876 b 593 1041 726 977 686 1025 b 386 943 491 1025 429 977 b 226 695 304 876 248 788 l 86 86 m 655 579 l 316 579 l 343 695 b 565 922 368 802 461 895 b 681 695 656 895 706 802 l 655 579 "},"6":{"x_min":113.578125,"x_max":886.109375,"ha":833,"o":"m 643 927 l 788 769 l 886 855 l 712 1043 l 591 1043 b 438 997 541 1043 490 1027 b 306 879 393 968 348 929 b 134 522 227 783 166 655 b 141 163 104 387 106 261 b 219 47 159 115 186 75 b 350 0 256 16 300 0 b 611 95 440 0 533 34 b 765 329 690 158 744 241 b 719 563 786 418 769 501 b 502 659 669 625 593 659 b 281 561 430 659 354 625 b 254 534 272 552 262 544 b 393 820 280 643 330 744 b 563 927 470 913 533 927 l 643 927 m 377 116 b 255 223 345 116 290 130 b 233 329 244 255 236 290 b 476 543 302 458 397 543 b 648 329 598 543 676 447 b 377 116 622 212 500 116 "},"‘":{"x_min":443.0625,"x_max":662.5,"ha":833,"o":"m 581 695 l 662 1041 l 595 1041 l 506 970 l 443 695 l 581 695 "},"O":{"x_min":94.734375,"x_max":851.296875,"ha":833,"o":"m 526 1043 b 400 1002 486 1043 443 1029 b 294 906 362 979 327 947 b 158 619 230 829 181 726 l 112 423 b 116 136 87 315 88 213 b 177 40 130 95 151 62 b 286 0 208 13 245 0 l 419 0 b 545 40 459 0 504 13 b 651 136 583 62 619 95 b 788 423 715 213 763 315 l 834 619 b 829 906 858 726 856 829 b 768 1002 815 947 794 979 b 661 1043 738 1029 701 1043 l 526 1043 m 312 115 b 230 194 277 115 247 144 b 227 423 208 254 209 337 l 273 619 b 381 848 293 705 333 788 b 500 926 422 898 465 926 l 634 926 b 716 848 669 926 698 898 b 719 619 737 788 738 705 l 673 423 b 565 194 654 337 613 254 b 445 115 525 144 481 115 l 312 115 "},"n":{"x_min":15.28125,"x_max":739.140625,"ha":833,"o":"m 659 84 l 730 395 b 691 606 750 476 736 551 b 513 694 651 661 588 691 l 425 694 l 315 580 l 329 638 l 283 695 l 175 695 l 162 638 l 206 611 l 86 84 l 27 58 l 15 0 l 123 0 l 194 58 l 293 486 l 444 579 l 475 579 b 615 395 576 579 638 497 l 537 58 l 581 0 l 690 0 l 702 58 l 659 84 "},"∅":{"x_min":26.390625,"x_max":840.28125,"ha":833,"o":"m 840 606 l 786 695 l 708 633 b 687 654 701 640 694 647 b 580 694 658 680 620 694 l 445 694 b 319 654 405 694 362 680 b 213 558 281 630 247 598 b 95 354 150 480 115 433 l 93 340 b 109 154 76 266 87 222 l 26 87 l 81 0 l 158 61 b 177 40 163 52 170 45 b 286 0 208 13 245 0 l 420 0 b 545 40 461 0 504 13 b 651 136 583 62 618 95 b 769 340 715 213 751 259 l 772 354 b 755 538 790 426 779 472 l 840 606 m 211 354 b 301 500 225 412 252 440 b 419 577 341 550 384 577 l 554 577 b 606 552 573 577 591 569 l 215 238 b 208 340 202 272 198 298 l 211 354 m 654 340 b 565 194 640 281 613 254 b 447 115 525 144 481 115 l 312 115 b 259 141 293 115 275 125 l 651 455 b 656 354 662 422 666 395 l 654 340 "},"3":{"x_min":63.890625,"x_max":871.28125,"ha":833,"o":"m 497 1041 l 205 829 l 262 743 l 513 926 l 600 926 b 748 752 704 926 770 848 b 519 579 726 656 623 579 l 331 579 l 318 520 l 362 461 l 505 461 b 641 288 601 455 662 380 b 412 115 619 193 516 115 l 326 115 l 159 300 l 63 212 l 256 0 l 386 0 b 618 83 466 0 548 29 b 756 288 690 138 738 211 b 713 495 775 366 759 440 b 687 520 705 504 697 512 b 725 545 701 529 713 537 b 863 752 797 601 845 673 b 820 958 881 830 866 902 b 626 1041 776 1012 706 1041 l 497 1041 "},"9":{"x_min":58.328125,"x_max":830.875,"ha":833,"o":"m 301 115 l 154 275 l 58 187 l 231 0 l 352 0 b 505 47 402 0 454 15 b 637 163 551 75 595 113 b 809 522 716 259 777 387 b 802 879 840 655 837 783 b 725 995 784 929 758 968 b 594 1043 687 1027 644 1043 b 333 947 504 1043 411 1009 b 179 713 254 884 200 802 b 225 480 159 625 175 543 b 441 384 275 418 351 384 b 662 481 513 384 590 418 b 690 508 672 490 681 500 b 551 223 663 400 613 298 b 380 115 473 129 411 115 l 301 115 m 469 500 b 295 713 345 500 268 595 b 568 927 322 831 444 927 b 688 819 598 927 654 913 b 711 713 701 788 708 752 b 469 500 641 584 547 500 "},"l":{"x_min":15.28125,"x_max":704.171875,"ha":833,"o":"m 544 87 l 495 113 l 697 983 l 652 1041 l 325 1041 l 308 970 l 572 944 l 379 113 l 309 83 l 100 115 l 27 55 l 15 0 l 354 0 l 418 29 l 470 0 l 691 0 l 704 55 l 659 115 l 544 87 "},"¤":{"x_min":65.28125,"x_max":868.0625,"ha":833,"o":"m 868 754 l 802 834 l 693 741 l 683 751 b 588 786 658 773 625 786 l 481 786 b 372 751 447 786 406 773 l 358 741 l 290 834 l 188 754 l 265 648 b 186 500 225 597 200 558 l 183 488 b 197 329 169 426 177 386 l 65 219 l 130 138 l 251 238 l 254 237 b 347 202 277 215 312 202 l 454 202 b 565 237 490 202 529 215 l 568 238 l 643 138 l 744 219 l 663 329 b 751 488 709 386 737 426 l 754 500 b 743 650 768 558 761 598 l 868 754 m 375 322 b 320 379 352 322 333 341 b 302 488 302 427 293 445 l 305 500 b 373 609 315 543 333 561 b 454 665 404 647 430 665 l 561 665 b 616 609 584 665 602 647 b 634 500 634 561 644 543 l 631 488 b 563 379 622 445 604 427 b 481 322 531 341 504 322 l 375 322 "},"4":{"x_min":186.109375,"x_max":930.5625,"ha":833,"o":"m 930 1041 l 822 1041 l 750 984 l 656 579 l 315 579 l 408 984 l 363 1041 l 255 1041 l 241 984 l 287 956 l 186 520 l 231 463 l 629 463 l 543 84 l 484 58 l 470 0 l 690 0 l 702 58 l 658 84 l 859 956 l 916 984 l 930 1041 "},"p":{"x_min":0,"x_max":776.828125,"ha":833,"o":"m 425 695 l 315 579 l 329 637 l 283 695 l 175 695 l 162 637 l 206 609 l 0 -288 l 44 -347 l 100 -347 l 113 -288 l 208 115 l 265 0 l 340 0 b 609 102 433 0 529 36 b 768 348 690 168 745 255 b 722 594 788 440 772 527 b 500 695 672 659 593 695 l 425 695 m 337 116 l 229 209 l 294 487 l 444 579 l 473 579 b 652 348 601 579 681 476 b 366 116 622 220 494 116 l 337 116 "},"‡":{"x_min":119.4375,"x_max":802.78125,"ha":833,"o":"m 719 579 l 790 637 l 802 694 l 745 694 l 566 675 l 651 1041 l 534 1041 l 447 662 l 212 637 l 198 579 l 427 579 l 368 318 l 131 293 l 119 234 l 348 234 l 275 -83 l 391 -83 l 465 234 l 640 234 l 709 293 l 723 350 l 666 350 l 487 330 l 544 579 l 719 579 "},"à":{"x_min":63.4375,"x_max":752.484375,"ha":833,"o":"m 483 920 l 450 873 l 229 1027 l 215 1108 l 248 1155 l 294 1122 l 483 920 m 659 86 l 747 466 b 741 568 755 501 754 537 b 687 640 731 595 713 619 b 488 695 638 677 568 695 b 263 636 409 695 330 673 b 220 605 248 626 234 616 l 279 520 b 306 538 287 526 295 533 b 462 579 351 565 406 579 b 600 543 518 579 568 569 b 630 466 636 515 634 481 l 611 379 l 538 461 l 470 461 b 222 402 383 461 294 440 b 125 331 183 383 150 359 b 68 230 95 301 76 266 b 77 130 59 195 62 161 b 141 59 91 102 113 79 b 365 1 197 22 277 1 l 461 1 l 536 58 l 583 1 l 691 1 l 704 58 l 659 86 m 431 116 l 391 116 b 225 159 325 116 263 131 b 183 230 193 180 177 206 b 258 302 188 255 215 281 b 444 345 311 330 377 345 l 484 345 l 593 302 l 559 158 l 431 116 "},"Ü":{"x_min":146.125,"x_max":930.5625,"ha":833,"o":"m 412 1304 l 376 1145 l 543 1145 l 566 1245 l 519 1304 l 412 1304 m 729 1304 l 693 1145 l 859 1145 l 883 1245 l 836 1304 l 729 1304 m 930 1041 l 820 1041 l 750 984 l 622 425 b 513 194 602 337 562 254 b 395 116 473 145 430 116 l 363 116 b 281 194 329 116 300 145 b 279 425 261 254 259 337 l 408 984 l 365 1041 l 255 1041 l 241 984 l 287 958 l 163 425 b 168 136 138 316 140 213 b 229 40 181 95 202 63 b 337 1 259 15 297 1 l 369 1 b 494 40 409 1 452 15 b 600 136 531 63 566 95 b 737 425 663 213 712 316 l 859 958 l 916 984 l 930 1041 "},"ó":{"x_min":84.9375,"x_max":780.953125,"ha":833,"o":"m 225 920 l 258 873 l 479 1027 l 493 1108 l 459 1155 l 413 1122 l 225 920 m 445 694 b 319 654 405 694 362 680 b 213 558 281 630 247 598 b 95 354 150 480 115 433 l 93 340 b 116 136 75 259 88 213 b 177 40 130 95 151 62 b 286 0 208 13 245 0 l 419 0 b 545 40 459 0 504 13 b 651 136 583 62 619 95 b 769 340 715 213 751 259 l 772 354 b 748 558 791 433 776 480 b 687 654 734 598 713 630 b 580 694 658 680 620 694 l 445 694 m 312 115 b 230 194 277 115 247 144 b 208 340 208 254 194 281 l 211 354 b 301 500 225 412 252 440 b 419 577 341 550 384 577 l 554 577 b 636 500 588 577 618 550 b 656 354 656 440 670 412 l 654 340 b 565 194 640 281 613 254 b 445 115 525 144 481 115 l 312 115 "}}}
